G04 #@! TF.FileFunction,Copper,L1,Top,Signal*
%FSLAX46Y46*%
G04 Gerber Fmt 4.6, Leading zero omitted, Abs format (unit mm)*
G04 Created by KiCad (PCBNEW 4.0.6) date 01/08/18 13:51:24*
%MOMM*%
%LPD*%
G01*
G04 APERTURE LIST*
%ADD10C,0.101600*%
%ADD11C,1.905000*%
%ADD12C,0.076200*%
%ADD13R,1.350000X1.350000*%
%ADD14O,1.350000X1.350000*%
%ADD15R,1.000000X1.250000*%
%ADD16R,1.250000X1.000000*%
%ADD17R,1.700000X1.700000*%
%ADD18O,1.700000X1.700000*%
%ADD19C,1.700000*%
%ADD20R,1.500000X0.600000*%
%ADD21R,1.500000X0.450000*%
%ADD22R,0.400000X1.000000*%
%ADD23C,0.609600*%
%ADD24C,0.203200*%
%ADD25C,0.381000*%
%ADD26C,0.254000*%
G04 APERTURE END LIST*
D10*
D11*
X112014000Y-91948000D03*
X112039400Y-94513400D03*
X112039400Y-97053400D03*
X112039400Y-99593400D03*
X112064800Y-102133400D03*
X112039400Y-104673400D03*
X112039400Y-107213400D03*
X112014000Y-109728000D03*
X112014000Y-114808000D03*
X112014000Y-117348000D03*
X112014000Y-127508000D03*
X160274000Y-127508000D03*
X112014000Y-124968000D03*
X112014000Y-119888000D03*
X112014000Y-122428000D03*
X160274000Y-124968000D03*
X160274000Y-122428000D03*
X160274000Y-119888000D03*
X160274000Y-117348000D03*
X160274000Y-114808000D03*
X160299400Y-95504000D03*
X160299400Y-92964000D03*
X160274000Y-90424000D03*
X160274000Y-103124000D03*
X160274000Y-98044000D03*
X160274000Y-105664000D03*
X160274000Y-112268000D03*
X160274000Y-109728000D03*
X160274000Y-100584000D03*
X160274000Y-87884000D03*
X160274000Y-85344000D03*
X160274000Y-82804000D03*
D12*
X109474000Y-75438000D03*
D13*
X123458180Y-106860360D03*
D14*
X125458180Y-106860360D03*
X123458180Y-108860360D03*
X125458180Y-108860360D03*
X123458180Y-110860360D03*
X125458180Y-110860360D03*
X123458180Y-112860360D03*
X125458180Y-112860360D03*
X123458180Y-114860360D03*
X125458180Y-114860360D03*
D15*
X121777000Y-101981000D03*
X119777000Y-101981000D03*
X134523180Y-102097360D03*
X136523180Y-102097360D03*
X144429180Y-97271360D03*
X146429180Y-97271360D03*
X142891000Y-112268000D03*
X144891000Y-112268000D03*
X142651180Y-124703360D03*
X144651180Y-124703360D03*
X145445180Y-122671360D03*
X147445180Y-122671360D03*
X143254180Y-122671360D03*
X141254180Y-122671360D03*
D16*
X149366180Y-124052360D03*
X149366180Y-122052360D03*
D17*
X120918180Y-85587360D03*
D18*
X120918180Y-83047360D03*
X123458180Y-85587360D03*
X123458180Y-83047360D03*
X125998180Y-85587360D03*
X125998180Y-83047360D03*
X128538180Y-85587360D03*
X128538180Y-83047360D03*
X131078180Y-85587360D03*
X131078180Y-83047360D03*
X133618180Y-85587360D03*
X133618180Y-83047360D03*
X136158180Y-85587360D03*
X136158180Y-83047360D03*
X138698180Y-85587360D03*
X138698180Y-83047360D03*
X141238180Y-85587360D03*
X141238180Y-83047360D03*
X143778180Y-85587360D03*
X143778180Y-83047360D03*
X146318180Y-85587360D03*
X146318180Y-83047360D03*
X148858180Y-85587360D03*
X148858180Y-83047360D03*
X151398180Y-85587360D03*
X151398180Y-83047360D03*
D17*
X133999180Y-120142000D03*
D18*
X133999180Y-122682000D03*
X131459180Y-120142000D03*
X131459180Y-122682000D03*
X128919180Y-120142000D03*
X128919180Y-122682000D03*
X126379180Y-120142000D03*
X126379180Y-122682000D03*
X123839180Y-120142000D03*
X123839180Y-122682000D03*
D19*
X154446180Y-122671360D03*
D18*
X154446180Y-120131360D03*
D20*
X127428180Y-100192360D03*
X127428180Y-98922360D03*
X127428180Y-97652360D03*
X127428180Y-96382360D03*
X127428180Y-95112360D03*
X127428180Y-93842360D03*
X127428180Y-92572360D03*
X127428180Y-91302360D03*
X122028180Y-91302360D03*
X122028180Y-92572360D03*
X122028180Y-93842360D03*
X122028180Y-95112360D03*
X122028180Y-96382360D03*
X122028180Y-97652360D03*
X122028180Y-98922360D03*
X122028180Y-100192360D03*
X140128180Y-100192360D03*
X140128180Y-98922360D03*
X140128180Y-97652360D03*
X140128180Y-96382360D03*
X140128180Y-95112360D03*
X140128180Y-93842360D03*
X140128180Y-92572360D03*
X140128180Y-91302360D03*
X134728180Y-91302360D03*
X134728180Y-92572360D03*
X134728180Y-93842360D03*
X134728180Y-95112360D03*
X134728180Y-96382360D03*
X134728180Y-97652360D03*
X134728180Y-98922360D03*
X134728180Y-100192360D03*
D21*
X150538180Y-95482360D03*
X150538180Y-94832360D03*
X150538180Y-94182360D03*
X150538180Y-93532360D03*
X150538180Y-92882360D03*
X150538180Y-92232360D03*
X150538180Y-91582360D03*
X144638180Y-91582360D03*
X144638180Y-92232360D03*
X144638180Y-92882360D03*
X144638180Y-93532360D03*
X144638180Y-94182360D03*
X144638180Y-94832360D03*
X144638180Y-95482360D03*
D22*
X143281180Y-120491360D03*
X143931180Y-120491360D03*
X144581180Y-120491360D03*
X145231180Y-120491360D03*
X145881180Y-120491360D03*
X146531180Y-120491360D03*
X147181180Y-120491360D03*
X147831180Y-120491360D03*
X147831180Y-114691360D03*
X147181180Y-114691360D03*
X146531180Y-114691360D03*
X145881180Y-114691360D03*
X145231180Y-114691360D03*
X144581180Y-114691360D03*
X143931180Y-114691360D03*
X143281180Y-114691360D03*
D23*
X119634000Y-99949000D03*
X144855946Y-113522043D03*
X136404817Y-103616632D03*
X148731180Y-125211360D03*
X139841180Y-122671360D03*
X150544134Y-90440757D03*
X140158832Y-90036411D03*
X133110180Y-96382360D03*
X149112180Y-95366360D03*
X127776180Y-90032360D03*
X146445180Y-95620360D03*
X156152243Y-88856293D03*
X128915893Y-98897650D03*
X133237180Y-93969360D03*
X133111196Y-98076046D03*
X129090931Y-88949754D03*
X155836021Y-89579210D03*
X134884623Y-89743516D03*
X120537180Y-91302360D03*
X148243718Y-96787416D03*
X148477180Y-99938360D03*
X146445180Y-92826360D03*
X149221580Y-96837562D03*
X149620180Y-100065360D03*
X146191180Y-91302360D03*
X143512237Y-99683452D03*
X142484113Y-95366360D03*
X133110180Y-95239360D03*
X131229127Y-100239335D03*
X141653447Y-99836610D03*
D24*
X146268190Y-92232360D02*
X146890630Y-91609920D01*
X144638180Y-92232360D02*
X146268190Y-92232360D01*
X145030483Y-84299663D02*
X144628179Y-83897359D01*
X146890630Y-91609920D02*
X146890630Y-88356065D01*
X146890630Y-88356065D02*
X145030483Y-86495918D01*
X145030483Y-86495918D02*
X145030483Y-84299663D01*
X144628179Y-83897359D02*
X143778180Y-83047360D01*
X150538180Y-92232360D02*
X149584980Y-92232360D01*
X149584980Y-92232360D02*
X148858180Y-91505560D01*
X148858180Y-91505560D02*
X148858180Y-86789441D01*
X148858180Y-86789441D02*
X148858180Y-85587360D01*
X150538180Y-93532360D02*
X149584980Y-93532360D01*
X149584980Y-93532360D02*
X147728779Y-91676159D01*
X147728779Y-91676159D02*
X147728779Y-84176761D01*
X147728779Y-84176761D02*
X148008181Y-83897359D01*
X148008181Y-83897359D02*
X148858180Y-83047360D01*
X144638180Y-93532360D02*
X146623764Y-93532360D01*
X146623764Y-93532360D02*
X147271641Y-92884483D01*
X147271641Y-92884483D02*
X147271641Y-86540821D01*
X147271641Y-86540821D02*
X147168179Y-86437359D01*
X147168179Y-86437359D02*
X146318180Y-85587360D01*
X122028180Y-98922360D02*
X120660640Y-98922360D01*
X120660640Y-98922360D02*
X119634000Y-99949000D01*
X119777000Y-101981000D02*
X119777000Y-100092000D01*
X119777000Y-100092000D02*
X119634000Y-99949000D01*
X144891000Y-112268000D02*
X144891000Y-113486989D01*
X144891000Y-113486989D02*
X144855946Y-113522043D01*
X144397297Y-113522043D02*
X144424894Y-113522043D01*
X143931180Y-113988160D02*
X144397297Y-113522043D01*
X143931180Y-114691360D02*
X143931180Y-113988160D01*
X144424894Y-113522043D02*
X144855946Y-113522043D01*
X136523180Y-103498269D02*
X136404817Y-103616632D01*
X136523180Y-102097360D02*
X136523180Y-103498269D01*
X149366180Y-124052360D02*
X149366180Y-124576360D01*
X149366180Y-124576360D02*
X148731180Y-125211360D01*
X141254180Y-122671360D02*
X139841180Y-122671360D01*
X150544134Y-90440757D02*
X150268779Y-90165402D01*
X150268779Y-90165402D02*
X150268779Y-84176761D01*
X150268779Y-84176761D02*
X150548181Y-83897359D01*
X150548181Y-83897359D02*
X151398180Y-83047360D01*
X150538180Y-90446711D02*
X150544134Y-90440757D01*
X150538180Y-91582360D02*
X150538180Y-90446711D01*
X140128180Y-90067063D02*
X140158832Y-90036411D01*
X140128180Y-91302360D02*
X140128180Y-90067063D01*
X140158832Y-89605359D02*
X140158832Y-90036411D01*
X140158832Y-89206708D02*
X140158832Y-89605359D01*
X143778180Y-85587360D02*
X140158832Y-89206708D01*
X149112180Y-95366360D02*
X146699180Y-95366360D01*
X146699180Y-95366360D02*
X146445180Y-95620360D01*
X134728180Y-96382360D02*
X133110180Y-96382360D01*
X150538180Y-95482360D02*
X149228180Y-95482360D01*
X149228180Y-95482360D02*
X149112180Y-95366360D01*
X146445180Y-95620360D02*
X145657180Y-94832360D01*
X145657180Y-94832360D02*
X144638180Y-94832360D01*
X127428180Y-91302360D02*
X127428180Y-90380360D01*
X127428180Y-90380360D02*
X127776180Y-90032360D01*
X146429180Y-97271360D02*
X146429180Y-95636360D01*
X146429180Y-95636360D02*
X146445180Y-95620360D01*
X156191693Y-88856293D02*
X156152243Y-88856293D01*
X160299400Y-92964000D02*
X156191693Y-88856293D01*
X128891183Y-98922360D02*
X128915893Y-98897650D01*
X127428180Y-98922360D02*
X128891183Y-98922360D01*
X127428180Y-98922360D02*
X126978180Y-98922360D01*
X125458180Y-105905766D02*
X125458180Y-106860360D01*
X127878180Y-98922360D02*
X127428180Y-98922360D01*
X133237180Y-93969360D02*
X134601180Y-93969360D01*
X134601180Y-93969360D02*
X134728180Y-93842360D01*
X133534882Y-97652360D02*
X133415995Y-97771247D01*
X134728180Y-97652360D02*
X133534882Y-97652360D01*
X133415995Y-97771247D02*
X133111196Y-98076046D01*
X126133179Y-108185361D02*
X125458180Y-108860360D01*
X142891000Y-112268000D02*
X142891000Y-114301180D01*
X142891000Y-114301180D02*
X143281180Y-114691360D01*
X121823180Y-102097360D02*
X121823180Y-100397360D01*
X121823180Y-100397360D02*
X122028180Y-100192360D01*
X134523180Y-102097360D02*
X134523180Y-100397360D01*
X134523180Y-100397360D02*
X134728180Y-100192360D01*
X144429180Y-97271360D02*
X144429180Y-95691360D01*
X144429180Y-95691360D02*
X144638180Y-95482360D01*
X112028180Y-127497360D02*
X112032675Y-127497360D01*
X112032675Y-127497360D02*
X122952334Y-116577701D01*
X122952334Y-116577701D02*
X123740839Y-116577701D01*
X123740839Y-116577701D02*
X125458180Y-114860360D01*
X129521983Y-88949754D02*
X129090931Y-88949754D01*
X134090861Y-88949754D02*
X129521983Y-88949754D01*
X134884623Y-89743516D02*
X134090861Y-88949754D01*
X160299400Y-95504000D02*
X160232230Y-95504000D01*
X155851793Y-89579210D02*
X155836021Y-89579210D01*
X160232230Y-95504000D02*
X158812996Y-94084766D01*
X158812996Y-94084766D02*
X158812996Y-92540413D01*
X158812996Y-92540413D02*
X155851793Y-89579210D01*
X120537180Y-91302360D02*
X122028180Y-91302360D01*
X142651180Y-124703360D02*
X142651180Y-123875160D01*
X142651180Y-123875160D02*
X142474779Y-123698759D01*
X142474779Y-123698759D02*
X142474779Y-121597761D01*
X142474779Y-121597761D02*
X143281180Y-120791360D01*
X143281180Y-120791360D02*
X143281180Y-120491360D01*
X144651180Y-124703360D02*
X144651180Y-120561360D01*
X144651180Y-120561360D02*
X144581180Y-120491360D01*
X145445180Y-122671360D02*
X145445180Y-121843160D01*
X145445180Y-121843160D02*
X145231180Y-121629160D01*
X145231180Y-121629160D02*
X145231180Y-121194560D01*
X145231180Y-121194560D02*
X145231180Y-120491360D01*
X147445180Y-122671360D02*
X147445180Y-122546360D01*
X145881180Y-120982360D02*
X145881180Y-120491360D01*
X147445180Y-122546360D02*
X145881180Y-120982360D01*
X143254180Y-122671360D02*
X143254180Y-121843160D01*
X143254180Y-121843160D02*
X143931180Y-121166160D01*
X143931180Y-121166160D02*
X143931180Y-120491360D01*
X149366180Y-122052360D02*
X148537980Y-122052360D01*
X148537980Y-122052360D02*
X147756381Y-121270761D01*
X146757659Y-121270761D02*
X146531180Y-121044282D01*
X147756381Y-121270761D02*
X146757659Y-121270761D01*
X146531180Y-121044282D02*
X146531180Y-120491360D01*
D25*
X120918180Y-85587360D02*
X115644812Y-85587360D01*
X115644812Y-85587360D02*
X110547806Y-90684366D01*
X110547806Y-90684366D02*
X110547806Y-108236986D01*
X110547806Y-108236986D02*
X112028180Y-109717360D01*
D24*
X121768179Y-83897359D02*
X120918180Y-83047360D01*
X122047581Y-86772641D02*
X122047581Y-84176761D01*
X122028180Y-93842360D02*
X122478180Y-93842360D01*
X122478180Y-93842360D02*
X123210404Y-93110136D01*
X123210404Y-93110136D02*
X123210404Y-87935464D01*
X123210404Y-87935464D02*
X122047581Y-86772641D01*
X122047581Y-84176761D02*
X121768179Y-83897359D01*
X123458180Y-86789441D02*
X123458180Y-85587360D01*
X122028180Y-95112360D02*
X122478180Y-95112360D01*
X123591415Y-86922676D02*
X123458180Y-86789441D01*
X123591415Y-93999125D02*
X123591415Y-86922676D01*
X122478180Y-95112360D02*
X123591415Y-93999125D01*
X123972426Y-94888114D02*
X123972426Y-87932454D01*
X124308179Y-83897359D02*
X123458180Y-83047360D01*
X123972426Y-87932454D02*
X124587581Y-87317299D01*
X122028180Y-96382360D02*
X122478180Y-96382360D01*
X124587581Y-87317299D02*
X124587581Y-84176761D01*
X122478180Y-96382360D02*
X123972426Y-94888114D01*
X124587581Y-84176761D02*
X124308179Y-83897359D01*
X125148181Y-86437359D02*
X125998180Y-85587360D01*
X124353437Y-95777103D02*
X124353437Y-88090273D01*
X122028180Y-97652360D02*
X122478180Y-97652360D01*
X122478180Y-97652360D02*
X124353437Y-95777103D01*
X125148181Y-87295529D02*
X125148181Y-86437359D01*
X124353437Y-88090273D02*
X125148181Y-87295529D01*
X126848179Y-83897359D02*
X125998180Y-83047360D01*
X127127581Y-84176761D02*
X126848179Y-83897359D01*
X124734448Y-95408628D02*
X124734448Y-88522606D01*
X127428180Y-97652360D02*
X126978180Y-97652360D01*
X126978180Y-97652360D02*
X124734448Y-95408628D01*
X127127581Y-86129473D02*
X127127581Y-84176761D01*
X124734448Y-88522606D02*
X127127581Y-86129473D01*
X125115459Y-89010081D02*
X127688181Y-86437359D01*
X126978180Y-96382360D02*
X125115459Y-94519639D01*
X127428180Y-96382360D02*
X126978180Y-96382360D01*
X127688181Y-86437359D02*
X128538180Y-85587360D01*
X125115459Y-94519639D02*
X125115459Y-89010081D01*
X126978180Y-95112360D02*
X125496470Y-93630650D01*
X129667581Y-84176761D02*
X129388179Y-83897359D01*
X129667581Y-86129473D02*
X129667581Y-84176761D01*
X127428180Y-95112360D02*
X126978180Y-95112360D01*
X129388179Y-83897359D02*
X128538180Y-83047360D01*
X125496470Y-93630650D02*
X125496470Y-90300584D01*
X125496470Y-90300584D02*
X129667581Y-86129473D01*
X126978180Y-93842360D02*
X125877481Y-92741661D01*
X125877481Y-92741661D02*
X125877481Y-90788059D01*
X127428180Y-93842360D02*
X126978180Y-93842360D01*
X130228181Y-86437359D02*
X131078180Y-85587360D01*
X125877481Y-90788059D02*
X130228181Y-86437359D01*
X136106234Y-88075414D02*
X134468179Y-86437359D01*
X134468179Y-86437359D02*
X133618180Y-85587360D01*
X134728180Y-98922360D02*
X135178180Y-98922360D01*
X135178180Y-98922360D02*
X136106234Y-97994306D01*
X136106234Y-97994306D02*
X136106234Y-88075414D01*
X140128180Y-100192360D02*
X139911177Y-100192360D01*
X139911177Y-100192360D02*
X136487245Y-96768428D01*
X136487245Y-96768428D02*
X136487245Y-87587939D01*
X136487245Y-87587939D02*
X134747581Y-85848275D01*
X134747581Y-85848275D02*
X134747581Y-84176761D01*
X134747581Y-84176761D02*
X134468179Y-83897359D01*
X134468179Y-83897359D02*
X133618180Y-83047360D01*
X140128180Y-98922360D02*
X139678180Y-98922360D01*
X136868256Y-86297436D02*
X136158180Y-85587360D01*
X136868256Y-96112436D02*
X136868256Y-86297436D01*
X139678180Y-98922360D02*
X136868256Y-96112436D01*
X140128180Y-97652360D02*
X139678180Y-97652360D01*
X139678180Y-97652360D02*
X137249267Y-95223447D01*
X137249267Y-95223447D02*
X137249267Y-86167787D01*
X137249267Y-86167787D02*
X137287581Y-86129473D01*
X137287581Y-86129473D02*
X137287581Y-84176761D01*
X137287581Y-84176761D02*
X137008179Y-83897359D01*
X137008179Y-83897359D02*
X136158180Y-83047360D01*
X140128180Y-96382360D02*
X139678180Y-96382360D01*
X139678180Y-96382360D02*
X137630278Y-94334458D01*
X137630278Y-94334458D02*
X137630278Y-86655262D01*
X137630278Y-86655262D02*
X137848181Y-86437359D01*
X137848181Y-86437359D02*
X138698180Y-85587360D01*
X140128180Y-95112360D02*
X139678180Y-95112360D01*
X138011289Y-87945765D02*
X139827581Y-86129473D01*
X139678180Y-95112360D02*
X138011289Y-93445469D01*
X138011289Y-93445469D02*
X138011289Y-87945765D01*
X139827581Y-86129473D02*
X139827581Y-84176761D01*
X139827581Y-84176761D02*
X139548179Y-83897359D01*
X139548179Y-83897359D02*
X138698180Y-83047360D01*
X140128180Y-93842360D02*
X139678180Y-93842360D01*
X139678180Y-93842360D02*
X138392300Y-92556480D01*
X138392300Y-92556480D02*
X138392300Y-88433240D01*
X138392300Y-88433240D02*
X140388181Y-86437359D01*
X140388181Y-86437359D02*
X141238180Y-85587360D01*
X138773311Y-91667491D02*
X138773311Y-89723743D01*
X142367581Y-86129473D02*
X142367581Y-84176761D01*
X140128180Y-92572360D02*
X139678180Y-92572360D01*
X139678180Y-92572360D02*
X138773311Y-91667491D01*
X138773311Y-89723743D02*
X142367581Y-86129473D01*
X142367581Y-84176761D02*
X142088179Y-83897359D01*
X142088179Y-83897359D02*
X141238180Y-83047360D01*
X148477180Y-97020878D02*
X148243718Y-96787416D01*
X148477180Y-99938360D02*
X148477180Y-97020878D01*
X146445180Y-92826360D02*
X144694180Y-92826360D01*
X144694180Y-92826360D02*
X144638180Y-92882360D01*
X154446180Y-122671360D02*
X152541180Y-122671360D01*
X152541180Y-122671360D02*
X145881180Y-116011360D01*
X145881180Y-116011360D02*
X145881180Y-114691360D01*
X156605180Y-95239360D02*
X155548180Y-94182360D01*
X155548180Y-94182360D02*
X150538180Y-94182360D01*
X156605180Y-101970360D02*
X156605180Y-95239360D01*
X160288180Y-105653360D02*
X156605180Y-101970360D01*
X149620180Y-97236162D02*
X149526379Y-97142361D01*
X149620180Y-100065360D02*
X149620180Y-97236162D01*
X149526379Y-97142361D02*
X149221580Y-96837562D01*
X146191180Y-91302360D02*
X144918180Y-91302360D01*
X144918180Y-91302360D02*
X144638180Y-91582360D01*
X157240180Y-94858360D02*
X155264180Y-92882360D01*
X155264180Y-92882360D02*
X150538180Y-92882360D01*
X157240180Y-100065360D02*
X157240180Y-94858360D01*
X160288180Y-103113360D02*
X157240180Y-100065360D01*
X131459180Y-120142000D02*
X134006683Y-117594497D01*
X142381243Y-117594497D02*
X144581180Y-115394560D01*
X144581180Y-115394560D02*
X144581180Y-114691360D01*
X134006683Y-117594497D02*
X142381243Y-117594497D01*
X135667549Y-124047451D02*
X140474481Y-119240519D01*
X147283539Y-119240519D02*
X147831180Y-119788160D01*
X140474481Y-119240519D02*
X147283539Y-119240519D01*
X132824631Y-124047451D02*
X135667549Y-124047451D01*
X131459180Y-122682000D02*
X132824631Y-124047451D01*
X147831180Y-119788160D02*
X147831180Y-120491360D01*
X128919180Y-120142000D02*
X130048581Y-121271401D01*
X130048581Y-121271401D02*
X135072701Y-121271401D01*
X135072701Y-121271401D02*
X138303000Y-118041102D01*
X138303000Y-118041102D02*
X142584638Y-118041102D01*
X142584638Y-118041102D02*
X145231180Y-115394560D01*
X145231180Y-115394560D02*
X145231180Y-114691360D01*
X147014550Y-119621530D02*
X147181180Y-119788160D01*
X142026392Y-119621530D02*
X147014550Y-119621530D01*
X130665642Y-124428462D02*
X137219460Y-124428462D01*
X128919180Y-122682000D02*
X130665642Y-124428462D01*
X137219460Y-124428462D02*
X142026392Y-119621530D01*
X147181180Y-119788160D02*
X147181180Y-120491360D01*
X160274000Y-124968000D02*
X155437360Y-120131360D01*
X155437360Y-120131360D02*
X154446180Y-120131360D01*
X157099000Y-116459000D02*
X157099000Y-119253000D01*
X157099000Y-119253000D02*
X160274000Y-122428000D01*
X154734161Y-114094161D02*
X157099000Y-116459000D01*
X154734161Y-114054360D02*
X154734161Y-114094161D01*
X154734161Y-114054360D02*
X148468180Y-114054360D01*
X148468180Y-114054360D02*
X147831180Y-114691360D01*
X146531180Y-114691360D02*
X146531180Y-115899360D01*
X146531180Y-115899360D02*
X152082622Y-121450802D01*
X158791004Y-124078128D02*
X158791004Y-126025004D01*
X152082622Y-121450802D02*
X156163678Y-121450802D01*
X156163678Y-121450802D02*
X158791004Y-124078128D01*
X158791004Y-126025004D02*
X160274000Y-127508000D01*
X157634079Y-118645079D02*
X158877000Y-119888000D01*
X158877000Y-119888000D02*
X160274000Y-119888000D01*
X157634079Y-116321360D02*
X157634079Y-118645079D01*
X157634079Y-116321360D02*
X154952395Y-113639676D01*
X154952395Y-113639676D02*
X147529664Y-113639676D01*
X147529664Y-113639676D02*
X147181180Y-113988160D01*
X147181180Y-113988160D02*
X147181180Y-114691360D01*
X142484113Y-98655328D02*
X143207438Y-99378653D01*
X142484113Y-95366360D02*
X142484113Y-98655328D01*
X143207438Y-99378653D02*
X143512237Y-99683452D01*
X133110180Y-95239360D02*
X134601180Y-95239360D01*
X134601180Y-95239360D02*
X134728180Y-95112360D01*
X131182152Y-100192360D02*
X131229127Y-100239335D01*
X127428180Y-100192360D02*
X131182152Y-100192360D01*
X112028180Y-122417360D02*
X115737855Y-122417360D01*
X115737855Y-122417360D02*
X121574806Y-116580409D01*
X121574806Y-116580409D02*
X121574806Y-107865534D01*
X121574806Y-107865534D02*
X122579980Y-106860360D01*
X122579980Y-106860360D02*
X123458180Y-106860360D01*
X123458180Y-114860360D02*
X123458180Y-115445960D01*
X112028180Y-124967553D02*
X112028180Y-124957360D01*
X123458180Y-115445960D02*
X113936587Y-124967553D01*
X113936587Y-124967553D02*
X112028180Y-124967553D01*
D26*
G36*
X162104000Y-128703000D02*
X161323939Y-128703000D01*
X161619032Y-128408421D01*
X161861224Y-127825159D01*
X161861775Y-127193612D01*
X161620602Y-126609928D01*
X161249065Y-126237743D01*
X161619032Y-125868421D01*
X161861224Y-125285159D01*
X161861775Y-124653612D01*
X161620602Y-124069928D01*
X161249065Y-123697743D01*
X161619032Y-123328421D01*
X161861224Y-122745159D01*
X161861775Y-122113612D01*
X161620602Y-121529928D01*
X161249065Y-121157743D01*
X161619032Y-120788421D01*
X161861224Y-120205159D01*
X161861775Y-119573612D01*
X161620602Y-118989928D01*
X161249065Y-118617743D01*
X161619032Y-118248421D01*
X161861224Y-117665159D01*
X161861775Y-117033612D01*
X161620602Y-116449928D01*
X161249065Y-116077743D01*
X161619032Y-115708421D01*
X161861224Y-115125159D01*
X161861775Y-114493612D01*
X161620602Y-113909928D01*
X161249065Y-113537743D01*
X161619032Y-113168421D01*
X161861224Y-112585159D01*
X161861775Y-111953612D01*
X161620602Y-111369928D01*
X161249065Y-110997743D01*
X161619032Y-110628421D01*
X161861224Y-110045159D01*
X161861775Y-109413612D01*
X161620602Y-108829928D01*
X161174421Y-108382968D01*
X160591159Y-108140776D01*
X159959612Y-108140225D01*
X159375928Y-108381398D01*
X158928968Y-108827579D01*
X158686776Y-109410841D01*
X158686225Y-110042388D01*
X158927398Y-110626072D01*
X159298935Y-110998257D01*
X158928968Y-111367579D01*
X158686776Y-111950841D01*
X158686225Y-112582388D01*
X158927398Y-113166072D01*
X159298935Y-113538257D01*
X158928968Y-113907579D01*
X158686776Y-114490841D01*
X158686225Y-115122388D01*
X158927398Y-115706072D01*
X159298935Y-116078257D01*
X158928968Y-116447579D01*
X158686776Y-117030841D01*
X158686225Y-117662388D01*
X158927398Y-118246072D01*
X159298935Y-118618257D01*
X158973667Y-118942957D01*
X158370679Y-118339969D01*
X158370679Y-116321360D01*
X158314609Y-116039475D01*
X158154934Y-115800505D01*
X155473250Y-113118821D01*
X155234280Y-112959146D01*
X154952395Y-112903076D01*
X147529664Y-112903076D01*
X147247779Y-112959146D01*
X147008809Y-113118821D01*
X146660325Y-113467305D01*
X146609132Y-113543920D01*
X146331180Y-113543920D01*
X146201591Y-113568304D01*
X146081180Y-113543920D01*
X145795728Y-113543920D01*
X145795864Y-113387061D01*
X145842441Y-113357090D01*
X145987431Y-113144890D01*
X146038440Y-112893000D01*
X146038440Y-111643000D01*
X145994162Y-111407683D01*
X145855090Y-111191559D01*
X145642890Y-111046569D01*
X145391000Y-110995560D01*
X144391000Y-110995560D01*
X144155683Y-111039838D01*
X143939559Y-111178910D01*
X143893031Y-111247006D01*
X143750698Y-111104673D01*
X143517309Y-111008000D01*
X143176750Y-111008000D01*
X143018000Y-111166750D01*
X143018000Y-112141000D01*
X143038000Y-112141000D01*
X143038000Y-112395000D01*
X143018000Y-112395000D01*
X143018000Y-113369250D01*
X143176750Y-113528000D01*
X143369770Y-113528000D01*
X143250650Y-113706275D01*
X143232813Y-113795949D01*
X143181180Y-113871516D01*
X143181180Y-113715110D01*
X143022430Y-113556360D01*
X142954870Y-113556360D01*
X142721481Y-113653033D01*
X142542853Y-113831662D01*
X142446180Y-114065051D01*
X142446180Y-114405610D01*
X142604930Y-114564360D01*
X143083740Y-114564360D01*
X143083740Y-114818360D01*
X142604930Y-114818360D01*
X142446180Y-114977110D01*
X142446180Y-115317669D01*
X142542853Y-115551058D01*
X142721481Y-115729687D01*
X142954870Y-115826360D01*
X143022430Y-115826360D01*
X143154178Y-115694612D01*
X143154178Y-115779852D01*
X142076133Y-116857897D01*
X134006683Y-116857897D01*
X133724798Y-116913967D01*
X133485828Y-117073642D01*
X131853190Y-118706280D01*
X131459180Y-118627907D01*
X130890895Y-118740946D01*
X130409126Y-119062853D01*
X130189180Y-119392026D01*
X129969234Y-119062853D01*
X129487465Y-118740946D01*
X128919180Y-118627907D01*
X128350895Y-118740946D01*
X127869126Y-119062853D01*
X127649180Y-119392026D01*
X127429234Y-119062853D01*
X126947465Y-118740946D01*
X126379180Y-118627907D01*
X125810895Y-118740946D01*
X125329126Y-119062853D01*
X125109180Y-119392026D01*
X124889234Y-119062853D01*
X124407465Y-118740946D01*
X123839180Y-118627907D01*
X123270895Y-118740946D01*
X122789126Y-119062853D01*
X122467219Y-119544622D01*
X122354180Y-120112907D01*
X122354180Y-120171093D01*
X122467219Y-120739378D01*
X122789126Y-121221147D01*
X123074758Y-121412000D01*
X122789126Y-121602853D01*
X122467219Y-122084622D01*
X122354180Y-122652907D01*
X122354180Y-122711093D01*
X122467219Y-123279378D01*
X122789126Y-123761147D01*
X123270895Y-124083054D01*
X123839180Y-124196093D01*
X124407465Y-124083054D01*
X124889234Y-123761147D01*
X125109180Y-123431974D01*
X125329126Y-123761147D01*
X125810895Y-124083054D01*
X126379180Y-124196093D01*
X126947465Y-124083054D01*
X127429234Y-123761147D01*
X127649180Y-123431974D01*
X127869126Y-123761147D01*
X128350895Y-124083054D01*
X128919180Y-124196093D01*
X129313190Y-124117720D01*
X130144787Y-124949317D01*
X130383757Y-125108992D01*
X130665642Y-125165062D01*
X137219460Y-125165062D01*
X137501345Y-125108992D01*
X137740315Y-124949317D01*
X139265110Y-123424522D01*
X139308131Y-123467619D01*
X139653422Y-123610997D01*
X140027298Y-123611323D01*
X140165518Y-123554211D01*
X140290090Y-123747801D01*
X140502290Y-123892791D01*
X140754180Y-123943800D01*
X141530989Y-123943800D01*
X141503740Y-124078360D01*
X141503740Y-125328360D01*
X141548018Y-125563677D01*
X141687090Y-125779801D01*
X141899290Y-125924791D01*
X142151180Y-125975800D01*
X143151180Y-125975800D01*
X143386497Y-125931522D01*
X143602621Y-125792450D01*
X143650314Y-125722649D01*
X143687090Y-125779801D01*
X143899290Y-125924791D01*
X144151180Y-125975800D01*
X145151180Y-125975800D01*
X145386497Y-125931522D01*
X145602621Y-125792450D01*
X145747611Y-125580250D01*
X145798620Y-125328360D01*
X145798620Y-124078360D01*
X145773301Y-123943800D01*
X145945180Y-123943800D01*
X146180497Y-123899522D01*
X146396621Y-123760450D01*
X146444314Y-123690649D01*
X146481090Y-123747801D01*
X146693290Y-123892791D01*
X146945180Y-123943800D01*
X147945180Y-123943800D01*
X148093740Y-123915846D01*
X148093740Y-124519769D01*
X147934921Y-124678311D01*
X147791543Y-125023602D01*
X147791217Y-125397478D01*
X147933992Y-125743019D01*
X148198131Y-126007619D01*
X148543422Y-126150997D01*
X148917298Y-126151323D01*
X149262839Y-126008548D01*
X149527439Y-125744409D01*
X149670817Y-125399118D01*
X149670892Y-125313358D01*
X149784450Y-125199800D01*
X149991180Y-125199800D01*
X150226497Y-125155522D01*
X150442621Y-125016450D01*
X150587611Y-124804250D01*
X150638620Y-124552360D01*
X150638620Y-123552360D01*
X150594342Y-123317043D01*
X150455270Y-123100919D01*
X150385469Y-123053226D01*
X150442621Y-123016450D01*
X150587611Y-122804250D01*
X150638620Y-122552360D01*
X150638620Y-121810510D01*
X152020325Y-123192215D01*
X152259295Y-123351890D01*
X152541180Y-123407960D01*
X153143765Y-123407960D01*
X153186524Y-123511446D01*
X153603897Y-123929548D01*
X154149499Y-124156102D01*
X154740269Y-124156617D01*
X155286266Y-123931016D01*
X155704368Y-123513643D01*
X155930922Y-122968041D01*
X155931437Y-122377271D01*
X155852985Y-122187402D01*
X155858568Y-122187402D01*
X158054404Y-124383238D01*
X158054404Y-126025004D01*
X158110474Y-126306889D01*
X158270149Y-126545859D01*
X158753776Y-127029486D01*
X158686776Y-127190841D01*
X158686225Y-127822388D01*
X158927398Y-128406072D01*
X159223808Y-128703000D01*
X113063939Y-128703000D01*
X113359032Y-128408421D01*
X113601224Y-127825159D01*
X113601775Y-127193612D01*
X113536386Y-127035359D01*
X123257444Y-117314301D01*
X123740839Y-117314301D01*
X124022724Y-117258231D01*
X124261694Y-117098556D01*
X125230144Y-116130106D01*
X125432516Y-116170360D01*
X125483844Y-116170360D01*
X125985159Y-116070642D01*
X126410154Y-115786670D01*
X126694126Y-115361675D01*
X126793844Y-114860360D01*
X126694126Y-114359045D01*
X126410154Y-113934050D01*
X126299869Y-113860360D01*
X126410154Y-113786670D01*
X126694126Y-113361675D01*
X126793844Y-112860360D01*
X126732856Y-112553750D01*
X141756000Y-112553750D01*
X141756000Y-113019310D01*
X141852673Y-113252699D01*
X142031302Y-113431327D01*
X142264691Y-113528000D01*
X142605250Y-113528000D01*
X142764000Y-113369250D01*
X142764000Y-112395000D01*
X141914750Y-112395000D01*
X141756000Y-112553750D01*
X126732856Y-112553750D01*
X126694126Y-112359045D01*
X126410154Y-111934050D01*
X126292494Y-111855432D01*
X126587658Y-111523993D01*
X126590682Y-111516690D01*
X141756000Y-111516690D01*
X141756000Y-111982250D01*
X141914750Y-112141000D01*
X142764000Y-112141000D01*
X142764000Y-111166750D01*
X142605250Y-111008000D01*
X142264691Y-111008000D01*
X142031302Y-111104673D01*
X141852673Y-111283301D01*
X141756000Y-111516690D01*
X126590682Y-111516690D01*
X126726090Y-111189760D01*
X126602404Y-110987360D01*
X125585180Y-110987360D01*
X125585180Y-111007360D01*
X125331180Y-111007360D01*
X125331180Y-110987360D01*
X123585180Y-110987360D01*
X123585180Y-111007360D01*
X123331180Y-111007360D01*
X123331180Y-110987360D01*
X123311180Y-110987360D01*
X123311180Y-110733360D01*
X123331180Y-110733360D01*
X123331180Y-110713360D01*
X123585180Y-110713360D01*
X123585180Y-110733360D01*
X125331180Y-110733360D01*
X125331180Y-110713360D01*
X125585180Y-110713360D01*
X125585180Y-110733360D01*
X126602404Y-110733360D01*
X126726090Y-110530960D01*
X126587658Y-110196727D01*
X126292494Y-109865288D01*
X126410154Y-109786670D01*
X126694126Y-109361675D01*
X126793844Y-108860360D01*
X126738144Y-108580337D01*
X126813709Y-108467245D01*
X126869779Y-108185361D01*
X126813709Y-107903476D01*
X126654034Y-107664506D01*
X126541862Y-107589555D01*
X126694126Y-107361675D01*
X126793844Y-106860360D01*
X126694126Y-106359045D01*
X126410154Y-105934050D01*
X126168256Y-105772419D01*
X126138710Y-105623881D01*
X125979035Y-105384911D01*
X125740065Y-105225236D01*
X125458180Y-105169166D01*
X125176295Y-105225236D01*
X124937325Y-105384911D01*
X124777650Y-105623881D01*
X124748104Y-105772419D01*
X124659948Y-105831323D01*
X124597270Y-105733919D01*
X124385070Y-105588929D01*
X124133180Y-105537920D01*
X122783180Y-105537920D01*
X122547863Y-105582198D01*
X122331739Y-105721270D01*
X122186749Y-105933470D01*
X122135740Y-106185360D01*
X122135740Y-106288312D01*
X122067528Y-106333890D01*
X122059125Y-106339505D01*
X121053951Y-107344679D01*
X120894276Y-107583649D01*
X120838206Y-107865534D01*
X120838206Y-116275299D01*
X115432745Y-121680760D01*
X113422924Y-121680760D01*
X113360602Y-121529928D01*
X112989065Y-121157743D01*
X113359032Y-120788421D01*
X113601224Y-120205159D01*
X113601775Y-119573612D01*
X113360602Y-118989928D01*
X112989065Y-118617743D01*
X113359032Y-118248421D01*
X113601224Y-117665159D01*
X113601775Y-117033612D01*
X113360602Y-116449928D01*
X112989065Y-116077743D01*
X113359032Y-115708421D01*
X113601224Y-115125159D01*
X113601775Y-114493612D01*
X113360602Y-113909928D01*
X112914421Y-113462968D01*
X112331159Y-113220776D01*
X111699612Y-113220225D01*
X111115928Y-113461398D01*
X110668968Y-113907579D01*
X110426776Y-114490841D01*
X110426225Y-115122388D01*
X110667398Y-115706072D01*
X111038935Y-116078257D01*
X110668968Y-116447579D01*
X110426776Y-117030841D01*
X110426225Y-117662388D01*
X110667398Y-118246072D01*
X111038935Y-118618257D01*
X110668968Y-118987579D01*
X110426776Y-119570841D01*
X110426225Y-120202388D01*
X110667398Y-120786072D01*
X111038935Y-121158257D01*
X110668968Y-121527579D01*
X110426776Y-122110841D01*
X110426225Y-122742388D01*
X110667398Y-123326072D01*
X111038935Y-123698257D01*
X110668968Y-124067579D01*
X110426776Y-124650841D01*
X110426225Y-125282388D01*
X110667398Y-125866072D01*
X111038935Y-126238257D01*
X110668968Y-126607579D01*
X110426776Y-127190841D01*
X110426225Y-127822388D01*
X110667398Y-128406072D01*
X110963808Y-128703000D01*
X110311000Y-128703000D01*
X110311000Y-109167614D01*
X110464171Y-109320785D01*
X110426776Y-109410841D01*
X110426225Y-110042388D01*
X110667398Y-110626072D01*
X111113579Y-111073032D01*
X111696841Y-111315224D01*
X112328388Y-111315775D01*
X112912072Y-111074602D01*
X113359032Y-110628421D01*
X113601224Y-110045159D01*
X113601775Y-109413612D01*
X113360602Y-108829928D01*
X113014443Y-108483165D01*
X113384432Y-108113821D01*
X113626624Y-107530559D01*
X113627175Y-106899012D01*
X113386002Y-106315328D01*
X113014465Y-105943143D01*
X113384432Y-105573821D01*
X113626624Y-104990559D01*
X113627175Y-104359012D01*
X113386002Y-103775328D01*
X112966615Y-103355209D01*
X113003354Y-103251559D01*
X112064800Y-102313005D01*
X112050658Y-102327148D01*
X111871053Y-102147543D01*
X111885195Y-102133400D01*
X112244405Y-102133400D01*
X113182959Y-103071954D01*
X113444888Y-102979112D01*
X113663475Y-102386599D01*
X113638678Y-101755539D01*
X113444888Y-101287688D01*
X113182959Y-101194846D01*
X112244405Y-102133400D01*
X111885195Y-102133400D01*
X111871053Y-102119258D01*
X112050658Y-101939653D01*
X112064800Y-101953795D01*
X113003354Y-101015241D01*
X112966436Y-100911088D01*
X113384432Y-100493821D01*
X113626624Y-99910559D01*
X113627175Y-99279012D01*
X113386002Y-98695328D01*
X113014465Y-98323143D01*
X113384432Y-97953821D01*
X113626624Y-97370559D01*
X113627175Y-96739012D01*
X113386002Y-96155328D01*
X113014465Y-95783143D01*
X113384432Y-95413821D01*
X113626624Y-94830559D01*
X113627175Y-94199012D01*
X113386002Y-93615328D01*
X112989088Y-93217721D01*
X113359032Y-92848421D01*
X113601224Y-92265159D01*
X113601775Y-91633612D01*
X113360602Y-91049928D01*
X112914421Y-90602968D01*
X112331159Y-90360776D01*
X112039085Y-90360521D01*
X115986746Y-86412860D01*
X119420740Y-86412860D01*
X119420740Y-86437360D01*
X119465018Y-86672677D01*
X119604090Y-86888801D01*
X119816290Y-87033791D01*
X120068180Y-87084800D01*
X121387279Y-87084800D01*
X121526726Y-87293496D01*
X122473804Y-88240574D01*
X122473804Y-90354920D01*
X121278180Y-90354920D01*
X121042863Y-90399198D01*
X120952622Y-90457266D01*
X120724938Y-90362723D01*
X120351062Y-90362397D01*
X120005521Y-90505172D01*
X119740921Y-90769311D01*
X119597543Y-91114602D01*
X119597217Y-91488478D01*
X119739992Y-91834019D01*
X120004131Y-92098619D01*
X120349422Y-92241997D01*
X120636838Y-92242248D01*
X120630740Y-92272360D01*
X120630740Y-92872360D01*
X120675018Y-93107677D01*
X120738858Y-93206888D01*
X120681749Y-93290470D01*
X120630740Y-93542360D01*
X120630740Y-94142360D01*
X120675018Y-94377677D01*
X120738858Y-94476888D01*
X120681749Y-94560470D01*
X120630740Y-94812360D01*
X120630740Y-95412360D01*
X120675018Y-95647677D01*
X120738858Y-95746888D01*
X120681749Y-95830470D01*
X120630740Y-96082360D01*
X120630740Y-96682360D01*
X120675018Y-96917677D01*
X120738858Y-97016888D01*
X120681749Y-97100470D01*
X120630740Y-97352360D01*
X120630740Y-97952360D01*
X120674657Y-98185760D01*
X120660640Y-98185760D01*
X120378755Y-98241830D01*
X120139785Y-98401505D01*
X119532179Y-99009111D01*
X119447882Y-99009037D01*
X119102341Y-99151812D01*
X118837741Y-99415951D01*
X118694363Y-99761242D01*
X118694037Y-100135118D01*
X118836812Y-100480659D01*
X119040400Y-100684602D01*
X119040400Y-100753664D01*
X118825559Y-100891910D01*
X118680569Y-101104110D01*
X118629560Y-101356000D01*
X118629560Y-102606000D01*
X118673838Y-102841317D01*
X118812910Y-103057441D01*
X119025110Y-103202431D01*
X119277000Y-103253440D01*
X120277000Y-103253440D01*
X120512317Y-103209162D01*
X120728441Y-103070090D01*
X120774969Y-103001994D01*
X120917302Y-103144327D01*
X121150691Y-103241000D01*
X121491250Y-103241000D01*
X121650000Y-103082250D01*
X121650000Y-102108000D01*
X121904000Y-102108000D01*
X121904000Y-103082250D01*
X122062750Y-103241000D01*
X122403309Y-103241000D01*
X122636698Y-103144327D01*
X122815327Y-102965699D01*
X122912000Y-102732310D01*
X122912000Y-102383110D01*
X133388180Y-102383110D01*
X133388180Y-102848670D01*
X133484853Y-103082059D01*
X133663482Y-103260687D01*
X133896871Y-103357360D01*
X134237430Y-103357360D01*
X134396180Y-103198610D01*
X134396180Y-102224360D01*
X133546930Y-102224360D01*
X133388180Y-102383110D01*
X122912000Y-102383110D01*
X122912000Y-102266750D01*
X122753250Y-102108000D01*
X121904000Y-102108000D01*
X121650000Y-102108000D01*
X121630000Y-102108000D01*
X121630000Y-101854000D01*
X121650000Y-101854000D01*
X121650000Y-101834000D01*
X121904000Y-101834000D01*
X121904000Y-101854000D01*
X122753250Y-101854000D01*
X122912000Y-101695250D01*
X122912000Y-101229690D01*
X122869613Y-101127360D01*
X122904489Y-101127360D01*
X123137878Y-101030687D01*
X123316507Y-100852059D01*
X123413180Y-100618670D01*
X123413180Y-100478110D01*
X123254430Y-100319360D01*
X122155180Y-100319360D01*
X122155180Y-100339360D01*
X121901180Y-100339360D01*
X121901180Y-100319360D01*
X120801930Y-100319360D01*
X120643180Y-100478110D01*
X120643180Y-100618670D01*
X120739853Y-100852059D01*
X120811384Y-100923590D01*
X120776064Y-100958910D01*
X120741090Y-100904559D01*
X120528890Y-100759569D01*
X120513600Y-100756473D01*
X120513600Y-100281342D01*
X120573637Y-100136758D01*
X120573712Y-100050998D01*
X120680640Y-99944070D01*
X120801930Y-100065360D01*
X121901180Y-100065360D01*
X121901180Y-100045360D01*
X122155180Y-100045360D01*
X122155180Y-100065360D01*
X123254430Y-100065360D01*
X123413180Y-99906610D01*
X123413180Y-99766050D01*
X123323374Y-99549238D01*
X123374611Y-99474250D01*
X123425620Y-99222360D01*
X123425620Y-98622360D01*
X123381342Y-98387043D01*
X123317502Y-98287832D01*
X123374611Y-98204250D01*
X123425620Y-97952360D01*
X123425620Y-97746630D01*
X124728180Y-96444070D01*
X126030740Y-97746630D01*
X126030740Y-97952360D01*
X126075018Y-98187677D01*
X126138858Y-98286888D01*
X126081749Y-98370470D01*
X126030740Y-98622360D01*
X126030740Y-99222360D01*
X126075018Y-99457677D01*
X126138858Y-99556888D01*
X126081749Y-99640470D01*
X126030740Y-99892360D01*
X126030740Y-100492360D01*
X126075018Y-100727677D01*
X126214090Y-100943801D01*
X126426290Y-101088791D01*
X126678180Y-101139800D01*
X128178180Y-101139800D01*
X128413497Y-101095522D01*
X128629621Y-100956450D01*
X128648404Y-100928960D01*
X130589630Y-100928960D01*
X130696078Y-101035594D01*
X131041369Y-101178972D01*
X131415245Y-101179298D01*
X131760786Y-101036523D01*
X132025386Y-100772384D01*
X132147579Y-100478110D01*
X133343180Y-100478110D01*
X133343180Y-100618670D01*
X133439853Y-100852059D01*
X133592655Y-101004860D01*
X133484853Y-101112661D01*
X133388180Y-101346050D01*
X133388180Y-101811610D01*
X133546930Y-101970360D01*
X134396180Y-101970360D01*
X134396180Y-101950360D01*
X134650180Y-101950360D01*
X134650180Y-101970360D01*
X134670180Y-101970360D01*
X134670180Y-102224360D01*
X134650180Y-102224360D01*
X134650180Y-103198610D01*
X134808930Y-103357360D01*
X135149489Y-103357360D01*
X135382878Y-103260687D01*
X135524116Y-103119450D01*
X135559090Y-103173801D01*
X135568443Y-103180191D01*
X135465180Y-103428874D01*
X135464854Y-103802750D01*
X135607629Y-104148291D01*
X135871768Y-104412891D01*
X136217059Y-104556269D01*
X136590935Y-104556595D01*
X136936476Y-104413820D01*
X137201076Y-104149681D01*
X137344454Y-103804390D01*
X137344780Y-103430514D01*
X137292387Y-103303714D01*
X137474621Y-103186450D01*
X137619611Y-102974250D01*
X137670620Y-102722360D01*
X137670620Y-101472360D01*
X137626342Y-101237043D01*
X137487270Y-101020919D01*
X137275070Y-100875929D01*
X137023180Y-100824920D01*
X136027748Y-100824920D01*
X136113180Y-100618670D01*
X136113180Y-100478110D01*
X135954430Y-100319360D01*
X134855180Y-100319360D01*
X134855180Y-100339360D01*
X134601180Y-100339360D01*
X134601180Y-100319360D01*
X133501930Y-100319360D01*
X133343180Y-100478110D01*
X132147579Y-100478110D01*
X132168764Y-100427093D01*
X132169090Y-100053217D01*
X132026315Y-99707676D01*
X131762176Y-99443076D01*
X131416885Y-99299698D01*
X131043009Y-99299372D01*
X130697468Y-99442147D01*
X130683831Y-99455760D01*
X129687047Y-99455760D01*
X129712152Y-99430699D01*
X129855530Y-99085408D01*
X129855856Y-98711532D01*
X129713081Y-98365991D01*
X129448942Y-98101391D01*
X129103651Y-97958013D01*
X128824525Y-97957770D01*
X128825620Y-97952360D01*
X128825620Y-97352360D01*
X128781342Y-97117043D01*
X128717502Y-97017832D01*
X128774611Y-96934250D01*
X128825620Y-96682360D01*
X128825620Y-96082360D01*
X128781342Y-95847043D01*
X128717502Y-95747832D01*
X128774611Y-95664250D01*
X128825620Y-95412360D01*
X128825620Y-94812360D01*
X128781342Y-94577043D01*
X128717502Y-94477832D01*
X128774611Y-94394250D01*
X128825620Y-94142360D01*
X128825620Y-93542360D01*
X128781342Y-93307043D01*
X128717502Y-93207832D01*
X128774611Y-93124250D01*
X128825620Y-92872360D01*
X128825620Y-92272360D01*
X128781342Y-92037043D01*
X128717502Y-91937832D01*
X128774611Y-91854250D01*
X128825620Y-91602360D01*
X128825620Y-91002360D01*
X128781342Y-90767043D01*
X128642270Y-90550919D01*
X128592560Y-90516953D01*
X128715817Y-90220118D01*
X128716143Y-89846242D01*
X128698929Y-89804581D01*
X128903173Y-89889391D01*
X129277049Y-89889717D01*
X129622590Y-89746942D01*
X129683284Y-89686354D01*
X133785751Y-89686354D01*
X133944734Y-89845337D01*
X133944660Y-89929634D01*
X134087435Y-90275175D01*
X134167041Y-90354920D01*
X133978180Y-90354920D01*
X133742863Y-90399198D01*
X133526739Y-90538270D01*
X133381749Y-90750470D01*
X133330740Y-91002360D01*
X133330740Y-91602360D01*
X133375018Y-91837677D01*
X133433358Y-91928340D01*
X133343180Y-92146050D01*
X133343180Y-92286610D01*
X133501930Y-92445360D01*
X134601180Y-92445360D01*
X134601180Y-92425360D01*
X134855180Y-92425360D01*
X134855180Y-92445360D01*
X134875180Y-92445360D01*
X134875180Y-92699360D01*
X134855180Y-92699360D01*
X134855180Y-92719360D01*
X134601180Y-92719360D01*
X134601180Y-92699360D01*
X133501930Y-92699360D01*
X133343180Y-92858110D01*
X133343180Y-92998670D01*
X133356018Y-93029663D01*
X133051062Y-93029397D01*
X132705521Y-93172172D01*
X132440921Y-93436311D01*
X132297543Y-93781602D01*
X132297217Y-94155478D01*
X132439992Y-94501019D01*
X132479712Y-94540809D01*
X132313921Y-94706311D01*
X132170543Y-95051602D01*
X132170217Y-95425478D01*
X132312992Y-95771019D01*
X132352602Y-95810698D01*
X132313921Y-95849311D01*
X132170543Y-96194602D01*
X132170217Y-96568478D01*
X132312992Y-96914019D01*
X132577131Y-97178619D01*
X132699330Y-97229361D01*
X132579537Y-97278858D01*
X132314937Y-97542997D01*
X132171559Y-97888288D01*
X132171233Y-98262164D01*
X132314008Y-98607705D01*
X132578147Y-98872305D01*
X132923438Y-99015683D01*
X133297314Y-99016009D01*
X133330740Y-99002198D01*
X133330740Y-99222360D01*
X133375018Y-99457677D01*
X133433358Y-99548340D01*
X133343180Y-99766050D01*
X133343180Y-99906610D01*
X133501930Y-100065360D01*
X134601180Y-100065360D01*
X134601180Y-100045360D01*
X134855180Y-100045360D01*
X134855180Y-100065360D01*
X135954430Y-100065360D01*
X136113180Y-99906610D01*
X136113180Y-99766050D01*
X136023374Y-99549238D01*
X136074611Y-99474250D01*
X136125620Y-99222360D01*
X136125620Y-99016630D01*
X136627089Y-98515161D01*
X136680860Y-98434687D01*
X136786764Y-98276191D01*
X136801074Y-98204250D01*
X136814394Y-98137287D01*
X138730740Y-100053633D01*
X138730740Y-100492360D01*
X138775018Y-100727677D01*
X138914090Y-100943801D01*
X139126290Y-101088791D01*
X139378180Y-101139800D01*
X140878180Y-101139800D01*
X141113497Y-101095522D01*
X141329621Y-100956450D01*
X141455608Y-100772061D01*
X141465689Y-100776247D01*
X141839565Y-100776573D01*
X142185106Y-100633798D01*
X142449706Y-100369659D01*
X142593084Y-100024368D01*
X142593175Y-99920154D01*
X142715049Y-100215111D01*
X142979188Y-100479711D01*
X143324479Y-100623089D01*
X143698355Y-100623415D01*
X144043896Y-100480640D01*
X144308496Y-100216501D01*
X144451874Y-99871210D01*
X144452200Y-99497334D01*
X144309425Y-99151793D01*
X144045286Y-98887193D01*
X143699995Y-98743815D01*
X143614235Y-98743740D01*
X143220713Y-98350218D01*
X143220713Y-97557110D01*
X143294180Y-97557110D01*
X143294180Y-98022670D01*
X143390853Y-98256059D01*
X143569482Y-98434687D01*
X143802871Y-98531360D01*
X144143430Y-98531360D01*
X144302180Y-98372610D01*
X144302180Y-97398360D01*
X143452930Y-97398360D01*
X143294180Y-97557110D01*
X143220713Y-97557110D01*
X143220713Y-95958964D01*
X143280372Y-95899409D01*
X143280391Y-95899363D01*
X143349853Y-96067059D01*
X143480155Y-96197360D01*
X143390853Y-96286661D01*
X143294180Y-96520050D01*
X143294180Y-96985610D01*
X143452930Y-97144360D01*
X144302180Y-97144360D01*
X144302180Y-97124360D01*
X144556180Y-97124360D01*
X144556180Y-97144360D01*
X144576180Y-97144360D01*
X144576180Y-97398360D01*
X144556180Y-97398360D01*
X144556180Y-98372610D01*
X144714930Y-98531360D01*
X145055489Y-98531360D01*
X145288878Y-98434687D01*
X145430116Y-98293450D01*
X145465090Y-98347801D01*
X145677290Y-98492791D01*
X145929180Y-98543800D01*
X146929180Y-98543800D01*
X147164497Y-98499522D01*
X147380621Y-98360450D01*
X147525611Y-98148250D01*
X147576620Y-97896360D01*
X147576620Y-97449392D01*
X147710669Y-97583675D01*
X147740580Y-97596095D01*
X147740580Y-99345756D01*
X147680921Y-99405311D01*
X147537543Y-99750602D01*
X147537217Y-100124478D01*
X147679992Y-100470019D01*
X147944131Y-100734619D01*
X148289422Y-100877997D01*
X148663298Y-100878323D01*
X148975168Y-100749461D01*
X149087131Y-100861619D01*
X149432422Y-101004997D01*
X149806298Y-101005323D01*
X150151839Y-100862548D01*
X150416439Y-100598409D01*
X150559817Y-100253118D01*
X150560143Y-99879242D01*
X150417368Y-99533701D01*
X150356780Y-99473007D01*
X150356780Y-97236162D01*
X150300710Y-96954277D01*
X150161461Y-96745876D01*
X150161543Y-96651444D01*
X150038972Y-96354800D01*
X151288180Y-96354800D01*
X151523497Y-96310522D01*
X151739621Y-96171450D01*
X151884611Y-95959250D01*
X151935620Y-95707360D01*
X151935620Y-95257360D01*
X151916113Y-95153689D01*
X151935620Y-95057360D01*
X151935620Y-94918960D01*
X155243070Y-94918960D01*
X155868580Y-95544470D01*
X155868580Y-101970360D01*
X155924650Y-102252245D01*
X156084325Y-102491215D01*
X158761059Y-105167949D01*
X158686776Y-105346841D01*
X158686225Y-105978388D01*
X158927398Y-106562072D01*
X159373579Y-107009032D01*
X159956841Y-107251224D01*
X160588388Y-107251775D01*
X161172072Y-107010602D01*
X161619032Y-106564421D01*
X161861224Y-105981159D01*
X161861775Y-105349612D01*
X161620602Y-104765928D01*
X161249065Y-104393743D01*
X161619032Y-104024421D01*
X161861224Y-103441159D01*
X161861775Y-102809612D01*
X161620602Y-102225928D01*
X161249065Y-101853743D01*
X161619032Y-101484421D01*
X161861224Y-100901159D01*
X161861775Y-100269612D01*
X161620602Y-99685928D01*
X161249065Y-99313743D01*
X161619032Y-98944421D01*
X161861224Y-98361159D01*
X161861775Y-97729612D01*
X161620602Y-97145928D01*
X161261743Y-96786443D01*
X161644432Y-96404421D01*
X161886624Y-95821159D01*
X161887175Y-95189612D01*
X161646002Y-94605928D01*
X161274465Y-94233743D01*
X161644432Y-93864421D01*
X161886624Y-93281159D01*
X161887175Y-92649612D01*
X161646002Y-92065928D01*
X161261788Y-91681043D01*
X161619032Y-91324421D01*
X161861224Y-90741159D01*
X161861775Y-90109612D01*
X161620602Y-89525928D01*
X161249065Y-89153743D01*
X161619032Y-88784421D01*
X161861224Y-88201159D01*
X161861775Y-87569612D01*
X161620602Y-86985928D01*
X161249065Y-86613743D01*
X161619032Y-86244421D01*
X161861224Y-85661159D01*
X161861775Y-85029612D01*
X161620602Y-84445928D01*
X161249065Y-84073743D01*
X161619032Y-83704421D01*
X161861224Y-83121159D01*
X161861775Y-82489612D01*
X161620602Y-81905928D01*
X161174421Y-81458968D01*
X160591159Y-81216776D01*
X159959612Y-81216225D01*
X159375928Y-81457398D01*
X158928968Y-81903579D01*
X158686776Y-82486841D01*
X158686225Y-83118388D01*
X158927398Y-83702072D01*
X159298935Y-84074257D01*
X158928968Y-84443579D01*
X158686776Y-85026841D01*
X158686225Y-85658388D01*
X158927398Y-86242072D01*
X159298935Y-86614257D01*
X158928968Y-86983579D01*
X158686776Y-87566841D01*
X158686225Y-88198388D01*
X158927398Y-88782072D01*
X159298935Y-89154257D01*
X158928968Y-89523579D01*
X158686776Y-90106841D01*
X158686599Y-90309489D01*
X157092167Y-88715057D01*
X157092206Y-88670175D01*
X156949431Y-88324634D01*
X156685292Y-88060034D01*
X156340001Y-87916656D01*
X155966125Y-87916330D01*
X155620584Y-88059105D01*
X155355984Y-88323244D01*
X155212606Y-88668535D01*
X155212427Y-88873797D01*
X155039762Y-89046161D01*
X154896384Y-89391452D01*
X154896058Y-89765328D01*
X155038833Y-90110869D01*
X155302972Y-90375469D01*
X155648263Y-90518847D01*
X155749809Y-90518936D01*
X158076396Y-92845523D01*
X158076396Y-94084766D01*
X158132466Y-94366651D01*
X158292141Y-94605621D01*
X158759468Y-95072948D01*
X158712176Y-95186841D01*
X158711625Y-95818388D01*
X158952798Y-96402072D01*
X159311657Y-96761557D01*
X158928968Y-97143579D01*
X158686776Y-97726841D01*
X158686225Y-98358388D01*
X158927398Y-98942072D01*
X159298935Y-99314257D01*
X158928968Y-99683579D01*
X158686776Y-100266841D01*
X158686599Y-100470069D01*
X157976780Y-99760250D01*
X157976780Y-94858360D01*
X157920710Y-94576475D01*
X157761035Y-94337505D01*
X155785035Y-92361505D01*
X155546065Y-92201830D01*
X155264180Y-92145760D01*
X151935620Y-92145760D01*
X151935620Y-92007360D01*
X151916113Y-91903689D01*
X151935620Y-91807360D01*
X151935620Y-91357360D01*
X151891342Y-91122043D01*
X151752270Y-90905919D01*
X151540070Y-90760929D01*
X151437419Y-90740142D01*
X151483771Y-90628515D01*
X151484097Y-90254639D01*
X151341322Y-89909098D01*
X151077183Y-89644498D01*
X151005379Y-89614682D01*
X151005379Y-87023320D01*
X151398180Y-87101453D01*
X151966465Y-86988414D01*
X152448234Y-86666507D01*
X152770141Y-86184738D01*
X152883180Y-85616453D01*
X152883180Y-85558267D01*
X152770141Y-84989982D01*
X152448234Y-84508213D01*
X152162602Y-84317360D01*
X152448234Y-84126507D01*
X152770141Y-83644738D01*
X152883180Y-83076453D01*
X152883180Y-83018267D01*
X152770141Y-82449982D01*
X152448234Y-81968213D01*
X151966465Y-81646306D01*
X151398180Y-81533267D01*
X150829895Y-81646306D01*
X150348126Y-81968213D01*
X150128180Y-82297386D01*
X149908234Y-81968213D01*
X149426465Y-81646306D01*
X148858180Y-81533267D01*
X148289895Y-81646306D01*
X147808126Y-81968213D01*
X147588180Y-82297386D01*
X147368234Y-81968213D01*
X146886465Y-81646306D01*
X146318180Y-81533267D01*
X145749895Y-81646306D01*
X145268126Y-81968213D01*
X145048180Y-82297386D01*
X144828234Y-81968213D01*
X144346465Y-81646306D01*
X143778180Y-81533267D01*
X143209895Y-81646306D01*
X142728126Y-81968213D01*
X142508180Y-82297386D01*
X142288234Y-81968213D01*
X141806465Y-81646306D01*
X141238180Y-81533267D01*
X140669895Y-81646306D01*
X140188126Y-81968213D01*
X139968180Y-82297386D01*
X139748234Y-81968213D01*
X139266465Y-81646306D01*
X138698180Y-81533267D01*
X138129895Y-81646306D01*
X137648126Y-81968213D01*
X137428180Y-82297386D01*
X137208234Y-81968213D01*
X136726465Y-81646306D01*
X136158180Y-81533267D01*
X135589895Y-81646306D01*
X135108126Y-81968213D01*
X134888180Y-82297386D01*
X134668234Y-81968213D01*
X134186465Y-81646306D01*
X133618180Y-81533267D01*
X133049895Y-81646306D01*
X132568126Y-81968213D01*
X132348180Y-82297386D01*
X132128234Y-81968213D01*
X131646465Y-81646306D01*
X131078180Y-81533267D01*
X130509895Y-81646306D01*
X130028126Y-81968213D01*
X129808180Y-82297386D01*
X129588234Y-81968213D01*
X129106465Y-81646306D01*
X128538180Y-81533267D01*
X127969895Y-81646306D01*
X127488126Y-81968213D01*
X127268180Y-82297386D01*
X127048234Y-81968213D01*
X126566465Y-81646306D01*
X125998180Y-81533267D01*
X125429895Y-81646306D01*
X124948126Y-81968213D01*
X124728180Y-82297386D01*
X124508234Y-81968213D01*
X124026465Y-81646306D01*
X123458180Y-81533267D01*
X122889895Y-81646306D01*
X122408126Y-81968213D01*
X122188180Y-82297386D01*
X121968234Y-81968213D01*
X121486465Y-81646306D01*
X120918180Y-81533267D01*
X120349895Y-81646306D01*
X119868126Y-81968213D01*
X119546219Y-82449982D01*
X119433180Y-83018267D01*
X119433180Y-83076453D01*
X119546219Y-83644738D01*
X119868126Y-84126507D01*
X119869359Y-84127331D01*
X119832863Y-84134198D01*
X119616739Y-84273270D01*
X119471749Y-84485470D01*
X119420740Y-84737360D01*
X119420740Y-84761860D01*
X115644812Y-84761860D01*
X115328906Y-84824697D01*
X115061095Y-85003643D01*
X110311000Y-89753738D01*
X110311000Y-80847000D01*
X162104000Y-80847000D01*
X162104000Y-128703000D01*
X162104000Y-128703000D01*
G37*
X162104000Y-128703000D02*
X161323939Y-128703000D01*
X161619032Y-128408421D01*
X161861224Y-127825159D01*
X161861775Y-127193612D01*
X161620602Y-126609928D01*
X161249065Y-126237743D01*
X161619032Y-125868421D01*
X161861224Y-125285159D01*
X161861775Y-124653612D01*
X161620602Y-124069928D01*
X161249065Y-123697743D01*
X161619032Y-123328421D01*
X161861224Y-122745159D01*
X161861775Y-122113612D01*
X161620602Y-121529928D01*
X161249065Y-121157743D01*
X161619032Y-120788421D01*
X161861224Y-120205159D01*
X161861775Y-119573612D01*
X161620602Y-118989928D01*
X161249065Y-118617743D01*
X161619032Y-118248421D01*
X161861224Y-117665159D01*
X161861775Y-117033612D01*
X161620602Y-116449928D01*
X161249065Y-116077743D01*
X161619032Y-115708421D01*
X161861224Y-115125159D01*
X161861775Y-114493612D01*
X161620602Y-113909928D01*
X161249065Y-113537743D01*
X161619032Y-113168421D01*
X161861224Y-112585159D01*
X161861775Y-111953612D01*
X161620602Y-111369928D01*
X161249065Y-110997743D01*
X161619032Y-110628421D01*
X161861224Y-110045159D01*
X161861775Y-109413612D01*
X161620602Y-108829928D01*
X161174421Y-108382968D01*
X160591159Y-108140776D01*
X159959612Y-108140225D01*
X159375928Y-108381398D01*
X158928968Y-108827579D01*
X158686776Y-109410841D01*
X158686225Y-110042388D01*
X158927398Y-110626072D01*
X159298935Y-110998257D01*
X158928968Y-111367579D01*
X158686776Y-111950841D01*
X158686225Y-112582388D01*
X158927398Y-113166072D01*
X159298935Y-113538257D01*
X158928968Y-113907579D01*
X158686776Y-114490841D01*
X158686225Y-115122388D01*
X158927398Y-115706072D01*
X159298935Y-116078257D01*
X158928968Y-116447579D01*
X158686776Y-117030841D01*
X158686225Y-117662388D01*
X158927398Y-118246072D01*
X159298935Y-118618257D01*
X158973667Y-118942957D01*
X158370679Y-118339969D01*
X158370679Y-116321360D01*
X158314609Y-116039475D01*
X158154934Y-115800505D01*
X155473250Y-113118821D01*
X155234280Y-112959146D01*
X154952395Y-112903076D01*
X147529664Y-112903076D01*
X147247779Y-112959146D01*
X147008809Y-113118821D01*
X146660325Y-113467305D01*
X146609132Y-113543920D01*
X146331180Y-113543920D01*
X146201591Y-113568304D01*
X146081180Y-113543920D01*
X145795728Y-113543920D01*
X145795864Y-113387061D01*
X145842441Y-113357090D01*
X145987431Y-113144890D01*
X146038440Y-112893000D01*
X146038440Y-111643000D01*
X145994162Y-111407683D01*
X145855090Y-111191559D01*
X145642890Y-111046569D01*
X145391000Y-110995560D01*
X144391000Y-110995560D01*
X144155683Y-111039838D01*
X143939559Y-111178910D01*
X143893031Y-111247006D01*
X143750698Y-111104673D01*
X143517309Y-111008000D01*
X143176750Y-111008000D01*
X143018000Y-111166750D01*
X143018000Y-112141000D01*
X143038000Y-112141000D01*
X143038000Y-112395000D01*
X143018000Y-112395000D01*
X143018000Y-113369250D01*
X143176750Y-113528000D01*
X143369770Y-113528000D01*
X143250650Y-113706275D01*
X143232813Y-113795949D01*
X143181180Y-113871516D01*
X143181180Y-113715110D01*
X143022430Y-113556360D01*
X142954870Y-113556360D01*
X142721481Y-113653033D01*
X142542853Y-113831662D01*
X142446180Y-114065051D01*
X142446180Y-114405610D01*
X142604930Y-114564360D01*
X143083740Y-114564360D01*
X143083740Y-114818360D01*
X142604930Y-114818360D01*
X142446180Y-114977110D01*
X142446180Y-115317669D01*
X142542853Y-115551058D01*
X142721481Y-115729687D01*
X142954870Y-115826360D01*
X143022430Y-115826360D01*
X143154178Y-115694612D01*
X143154178Y-115779852D01*
X142076133Y-116857897D01*
X134006683Y-116857897D01*
X133724798Y-116913967D01*
X133485828Y-117073642D01*
X131853190Y-118706280D01*
X131459180Y-118627907D01*
X130890895Y-118740946D01*
X130409126Y-119062853D01*
X130189180Y-119392026D01*
X129969234Y-119062853D01*
X129487465Y-118740946D01*
X128919180Y-118627907D01*
X128350895Y-118740946D01*
X127869126Y-119062853D01*
X127649180Y-119392026D01*
X127429234Y-119062853D01*
X126947465Y-118740946D01*
X126379180Y-118627907D01*
X125810895Y-118740946D01*
X125329126Y-119062853D01*
X125109180Y-119392026D01*
X124889234Y-119062853D01*
X124407465Y-118740946D01*
X123839180Y-118627907D01*
X123270895Y-118740946D01*
X122789126Y-119062853D01*
X122467219Y-119544622D01*
X122354180Y-120112907D01*
X122354180Y-120171093D01*
X122467219Y-120739378D01*
X122789126Y-121221147D01*
X123074758Y-121412000D01*
X122789126Y-121602853D01*
X122467219Y-122084622D01*
X122354180Y-122652907D01*
X122354180Y-122711093D01*
X122467219Y-123279378D01*
X122789126Y-123761147D01*
X123270895Y-124083054D01*
X123839180Y-124196093D01*
X124407465Y-124083054D01*
X124889234Y-123761147D01*
X125109180Y-123431974D01*
X125329126Y-123761147D01*
X125810895Y-124083054D01*
X126379180Y-124196093D01*
X126947465Y-124083054D01*
X127429234Y-123761147D01*
X127649180Y-123431974D01*
X127869126Y-123761147D01*
X128350895Y-124083054D01*
X128919180Y-124196093D01*
X129313190Y-124117720D01*
X130144787Y-124949317D01*
X130383757Y-125108992D01*
X130665642Y-125165062D01*
X137219460Y-125165062D01*
X137501345Y-125108992D01*
X137740315Y-124949317D01*
X139265110Y-123424522D01*
X139308131Y-123467619D01*
X139653422Y-123610997D01*
X140027298Y-123611323D01*
X140165518Y-123554211D01*
X140290090Y-123747801D01*
X140502290Y-123892791D01*
X140754180Y-123943800D01*
X141530989Y-123943800D01*
X141503740Y-124078360D01*
X141503740Y-125328360D01*
X141548018Y-125563677D01*
X141687090Y-125779801D01*
X141899290Y-125924791D01*
X142151180Y-125975800D01*
X143151180Y-125975800D01*
X143386497Y-125931522D01*
X143602621Y-125792450D01*
X143650314Y-125722649D01*
X143687090Y-125779801D01*
X143899290Y-125924791D01*
X144151180Y-125975800D01*
X145151180Y-125975800D01*
X145386497Y-125931522D01*
X145602621Y-125792450D01*
X145747611Y-125580250D01*
X145798620Y-125328360D01*
X145798620Y-124078360D01*
X145773301Y-123943800D01*
X145945180Y-123943800D01*
X146180497Y-123899522D01*
X146396621Y-123760450D01*
X146444314Y-123690649D01*
X146481090Y-123747801D01*
X146693290Y-123892791D01*
X146945180Y-123943800D01*
X147945180Y-123943800D01*
X148093740Y-123915846D01*
X148093740Y-124519769D01*
X147934921Y-124678311D01*
X147791543Y-125023602D01*
X147791217Y-125397478D01*
X147933992Y-125743019D01*
X148198131Y-126007619D01*
X148543422Y-126150997D01*
X148917298Y-126151323D01*
X149262839Y-126008548D01*
X149527439Y-125744409D01*
X149670817Y-125399118D01*
X149670892Y-125313358D01*
X149784450Y-125199800D01*
X149991180Y-125199800D01*
X150226497Y-125155522D01*
X150442621Y-125016450D01*
X150587611Y-124804250D01*
X150638620Y-124552360D01*
X150638620Y-123552360D01*
X150594342Y-123317043D01*
X150455270Y-123100919D01*
X150385469Y-123053226D01*
X150442621Y-123016450D01*
X150587611Y-122804250D01*
X150638620Y-122552360D01*
X150638620Y-121810510D01*
X152020325Y-123192215D01*
X152259295Y-123351890D01*
X152541180Y-123407960D01*
X153143765Y-123407960D01*
X153186524Y-123511446D01*
X153603897Y-123929548D01*
X154149499Y-124156102D01*
X154740269Y-124156617D01*
X155286266Y-123931016D01*
X155704368Y-123513643D01*
X155930922Y-122968041D01*
X155931437Y-122377271D01*
X155852985Y-122187402D01*
X155858568Y-122187402D01*
X158054404Y-124383238D01*
X158054404Y-126025004D01*
X158110474Y-126306889D01*
X158270149Y-126545859D01*
X158753776Y-127029486D01*
X158686776Y-127190841D01*
X158686225Y-127822388D01*
X158927398Y-128406072D01*
X159223808Y-128703000D01*
X113063939Y-128703000D01*
X113359032Y-128408421D01*
X113601224Y-127825159D01*
X113601775Y-127193612D01*
X113536386Y-127035359D01*
X123257444Y-117314301D01*
X123740839Y-117314301D01*
X124022724Y-117258231D01*
X124261694Y-117098556D01*
X125230144Y-116130106D01*
X125432516Y-116170360D01*
X125483844Y-116170360D01*
X125985159Y-116070642D01*
X126410154Y-115786670D01*
X126694126Y-115361675D01*
X126793844Y-114860360D01*
X126694126Y-114359045D01*
X126410154Y-113934050D01*
X126299869Y-113860360D01*
X126410154Y-113786670D01*
X126694126Y-113361675D01*
X126793844Y-112860360D01*
X126732856Y-112553750D01*
X141756000Y-112553750D01*
X141756000Y-113019310D01*
X141852673Y-113252699D01*
X142031302Y-113431327D01*
X142264691Y-113528000D01*
X142605250Y-113528000D01*
X142764000Y-113369250D01*
X142764000Y-112395000D01*
X141914750Y-112395000D01*
X141756000Y-112553750D01*
X126732856Y-112553750D01*
X126694126Y-112359045D01*
X126410154Y-111934050D01*
X126292494Y-111855432D01*
X126587658Y-111523993D01*
X126590682Y-111516690D01*
X141756000Y-111516690D01*
X141756000Y-111982250D01*
X141914750Y-112141000D01*
X142764000Y-112141000D01*
X142764000Y-111166750D01*
X142605250Y-111008000D01*
X142264691Y-111008000D01*
X142031302Y-111104673D01*
X141852673Y-111283301D01*
X141756000Y-111516690D01*
X126590682Y-111516690D01*
X126726090Y-111189760D01*
X126602404Y-110987360D01*
X125585180Y-110987360D01*
X125585180Y-111007360D01*
X125331180Y-111007360D01*
X125331180Y-110987360D01*
X123585180Y-110987360D01*
X123585180Y-111007360D01*
X123331180Y-111007360D01*
X123331180Y-110987360D01*
X123311180Y-110987360D01*
X123311180Y-110733360D01*
X123331180Y-110733360D01*
X123331180Y-110713360D01*
X123585180Y-110713360D01*
X123585180Y-110733360D01*
X125331180Y-110733360D01*
X125331180Y-110713360D01*
X125585180Y-110713360D01*
X125585180Y-110733360D01*
X126602404Y-110733360D01*
X126726090Y-110530960D01*
X126587658Y-110196727D01*
X126292494Y-109865288D01*
X126410154Y-109786670D01*
X126694126Y-109361675D01*
X126793844Y-108860360D01*
X126738144Y-108580337D01*
X126813709Y-108467245D01*
X126869779Y-108185361D01*
X126813709Y-107903476D01*
X126654034Y-107664506D01*
X126541862Y-107589555D01*
X126694126Y-107361675D01*
X126793844Y-106860360D01*
X126694126Y-106359045D01*
X126410154Y-105934050D01*
X126168256Y-105772419D01*
X126138710Y-105623881D01*
X125979035Y-105384911D01*
X125740065Y-105225236D01*
X125458180Y-105169166D01*
X125176295Y-105225236D01*
X124937325Y-105384911D01*
X124777650Y-105623881D01*
X124748104Y-105772419D01*
X124659948Y-105831323D01*
X124597270Y-105733919D01*
X124385070Y-105588929D01*
X124133180Y-105537920D01*
X122783180Y-105537920D01*
X122547863Y-105582198D01*
X122331739Y-105721270D01*
X122186749Y-105933470D01*
X122135740Y-106185360D01*
X122135740Y-106288312D01*
X122067528Y-106333890D01*
X122059125Y-106339505D01*
X121053951Y-107344679D01*
X120894276Y-107583649D01*
X120838206Y-107865534D01*
X120838206Y-116275299D01*
X115432745Y-121680760D01*
X113422924Y-121680760D01*
X113360602Y-121529928D01*
X112989065Y-121157743D01*
X113359032Y-120788421D01*
X113601224Y-120205159D01*
X113601775Y-119573612D01*
X113360602Y-118989928D01*
X112989065Y-118617743D01*
X113359032Y-118248421D01*
X113601224Y-117665159D01*
X113601775Y-117033612D01*
X113360602Y-116449928D01*
X112989065Y-116077743D01*
X113359032Y-115708421D01*
X113601224Y-115125159D01*
X113601775Y-114493612D01*
X113360602Y-113909928D01*
X112914421Y-113462968D01*
X112331159Y-113220776D01*
X111699612Y-113220225D01*
X111115928Y-113461398D01*
X110668968Y-113907579D01*
X110426776Y-114490841D01*
X110426225Y-115122388D01*
X110667398Y-115706072D01*
X111038935Y-116078257D01*
X110668968Y-116447579D01*
X110426776Y-117030841D01*
X110426225Y-117662388D01*
X110667398Y-118246072D01*
X111038935Y-118618257D01*
X110668968Y-118987579D01*
X110426776Y-119570841D01*
X110426225Y-120202388D01*
X110667398Y-120786072D01*
X111038935Y-121158257D01*
X110668968Y-121527579D01*
X110426776Y-122110841D01*
X110426225Y-122742388D01*
X110667398Y-123326072D01*
X111038935Y-123698257D01*
X110668968Y-124067579D01*
X110426776Y-124650841D01*
X110426225Y-125282388D01*
X110667398Y-125866072D01*
X111038935Y-126238257D01*
X110668968Y-126607579D01*
X110426776Y-127190841D01*
X110426225Y-127822388D01*
X110667398Y-128406072D01*
X110963808Y-128703000D01*
X110311000Y-128703000D01*
X110311000Y-109167614D01*
X110464171Y-109320785D01*
X110426776Y-109410841D01*
X110426225Y-110042388D01*
X110667398Y-110626072D01*
X111113579Y-111073032D01*
X111696841Y-111315224D01*
X112328388Y-111315775D01*
X112912072Y-111074602D01*
X113359032Y-110628421D01*
X113601224Y-110045159D01*
X113601775Y-109413612D01*
X113360602Y-108829928D01*
X113014443Y-108483165D01*
X113384432Y-108113821D01*
X113626624Y-107530559D01*
X113627175Y-106899012D01*
X113386002Y-106315328D01*
X113014465Y-105943143D01*
X113384432Y-105573821D01*
X113626624Y-104990559D01*
X113627175Y-104359012D01*
X113386002Y-103775328D01*
X112966615Y-103355209D01*
X113003354Y-103251559D01*
X112064800Y-102313005D01*
X112050658Y-102327148D01*
X111871053Y-102147543D01*
X111885195Y-102133400D01*
X112244405Y-102133400D01*
X113182959Y-103071954D01*
X113444888Y-102979112D01*
X113663475Y-102386599D01*
X113638678Y-101755539D01*
X113444888Y-101287688D01*
X113182959Y-101194846D01*
X112244405Y-102133400D01*
X111885195Y-102133400D01*
X111871053Y-102119258D01*
X112050658Y-101939653D01*
X112064800Y-101953795D01*
X113003354Y-101015241D01*
X112966436Y-100911088D01*
X113384432Y-100493821D01*
X113626624Y-99910559D01*
X113627175Y-99279012D01*
X113386002Y-98695328D01*
X113014465Y-98323143D01*
X113384432Y-97953821D01*
X113626624Y-97370559D01*
X113627175Y-96739012D01*
X113386002Y-96155328D01*
X113014465Y-95783143D01*
X113384432Y-95413821D01*
X113626624Y-94830559D01*
X113627175Y-94199012D01*
X113386002Y-93615328D01*
X112989088Y-93217721D01*
X113359032Y-92848421D01*
X113601224Y-92265159D01*
X113601775Y-91633612D01*
X113360602Y-91049928D01*
X112914421Y-90602968D01*
X112331159Y-90360776D01*
X112039085Y-90360521D01*
X115986746Y-86412860D01*
X119420740Y-86412860D01*
X119420740Y-86437360D01*
X119465018Y-86672677D01*
X119604090Y-86888801D01*
X119816290Y-87033791D01*
X120068180Y-87084800D01*
X121387279Y-87084800D01*
X121526726Y-87293496D01*
X122473804Y-88240574D01*
X122473804Y-90354920D01*
X121278180Y-90354920D01*
X121042863Y-90399198D01*
X120952622Y-90457266D01*
X120724938Y-90362723D01*
X120351062Y-90362397D01*
X120005521Y-90505172D01*
X119740921Y-90769311D01*
X119597543Y-91114602D01*
X119597217Y-91488478D01*
X119739992Y-91834019D01*
X120004131Y-92098619D01*
X120349422Y-92241997D01*
X120636838Y-92242248D01*
X120630740Y-92272360D01*
X120630740Y-92872360D01*
X120675018Y-93107677D01*
X120738858Y-93206888D01*
X120681749Y-93290470D01*
X120630740Y-93542360D01*
X120630740Y-94142360D01*
X120675018Y-94377677D01*
X120738858Y-94476888D01*
X120681749Y-94560470D01*
X120630740Y-94812360D01*
X120630740Y-95412360D01*
X120675018Y-95647677D01*
X120738858Y-95746888D01*
X120681749Y-95830470D01*
X120630740Y-96082360D01*
X120630740Y-96682360D01*
X120675018Y-96917677D01*
X120738858Y-97016888D01*
X120681749Y-97100470D01*
X120630740Y-97352360D01*
X120630740Y-97952360D01*
X120674657Y-98185760D01*
X120660640Y-98185760D01*
X120378755Y-98241830D01*
X120139785Y-98401505D01*
X119532179Y-99009111D01*
X119447882Y-99009037D01*
X119102341Y-99151812D01*
X118837741Y-99415951D01*
X118694363Y-99761242D01*
X118694037Y-100135118D01*
X118836812Y-100480659D01*
X119040400Y-100684602D01*
X119040400Y-100753664D01*
X118825559Y-100891910D01*
X118680569Y-101104110D01*
X118629560Y-101356000D01*
X118629560Y-102606000D01*
X118673838Y-102841317D01*
X118812910Y-103057441D01*
X119025110Y-103202431D01*
X119277000Y-103253440D01*
X120277000Y-103253440D01*
X120512317Y-103209162D01*
X120728441Y-103070090D01*
X120774969Y-103001994D01*
X120917302Y-103144327D01*
X121150691Y-103241000D01*
X121491250Y-103241000D01*
X121650000Y-103082250D01*
X121650000Y-102108000D01*
X121904000Y-102108000D01*
X121904000Y-103082250D01*
X122062750Y-103241000D01*
X122403309Y-103241000D01*
X122636698Y-103144327D01*
X122815327Y-102965699D01*
X122912000Y-102732310D01*
X122912000Y-102383110D01*
X133388180Y-102383110D01*
X133388180Y-102848670D01*
X133484853Y-103082059D01*
X133663482Y-103260687D01*
X133896871Y-103357360D01*
X134237430Y-103357360D01*
X134396180Y-103198610D01*
X134396180Y-102224360D01*
X133546930Y-102224360D01*
X133388180Y-102383110D01*
X122912000Y-102383110D01*
X122912000Y-102266750D01*
X122753250Y-102108000D01*
X121904000Y-102108000D01*
X121650000Y-102108000D01*
X121630000Y-102108000D01*
X121630000Y-101854000D01*
X121650000Y-101854000D01*
X121650000Y-101834000D01*
X121904000Y-101834000D01*
X121904000Y-101854000D01*
X122753250Y-101854000D01*
X122912000Y-101695250D01*
X122912000Y-101229690D01*
X122869613Y-101127360D01*
X122904489Y-101127360D01*
X123137878Y-101030687D01*
X123316507Y-100852059D01*
X123413180Y-100618670D01*
X123413180Y-100478110D01*
X123254430Y-100319360D01*
X122155180Y-100319360D01*
X122155180Y-100339360D01*
X121901180Y-100339360D01*
X121901180Y-100319360D01*
X120801930Y-100319360D01*
X120643180Y-100478110D01*
X120643180Y-100618670D01*
X120739853Y-100852059D01*
X120811384Y-100923590D01*
X120776064Y-100958910D01*
X120741090Y-100904559D01*
X120528890Y-100759569D01*
X120513600Y-100756473D01*
X120513600Y-100281342D01*
X120573637Y-100136758D01*
X120573712Y-100050998D01*
X120680640Y-99944070D01*
X120801930Y-100065360D01*
X121901180Y-100065360D01*
X121901180Y-100045360D01*
X122155180Y-100045360D01*
X122155180Y-100065360D01*
X123254430Y-100065360D01*
X123413180Y-99906610D01*
X123413180Y-99766050D01*
X123323374Y-99549238D01*
X123374611Y-99474250D01*
X123425620Y-99222360D01*
X123425620Y-98622360D01*
X123381342Y-98387043D01*
X123317502Y-98287832D01*
X123374611Y-98204250D01*
X123425620Y-97952360D01*
X123425620Y-97746630D01*
X124728180Y-96444070D01*
X126030740Y-97746630D01*
X126030740Y-97952360D01*
X126075018Y-98187677D01*
X126138858Y-98286888D01*
X126081749Y-98370470D01*
X126030740Y-98622360D01*
X126030740Y-99222360D01*
X126075018Y-99457677D01*
X126138858Y-99556888D01*
X126081749Y-99640470D01*
X126030740Y-99892360D01*
X126030740Y-100492360D01*
X126075018Y-100727677D01*
X126214090Y-100943801D01*
X126426290Y-101088791D01*
X126678180Y-101139800D01*
X128178180Y-101139800D01*
X128413497Y-101095522D01*
X128629621Y-100956450D01*
X128648404Y-100928960D01*
X130589630Y-100928960D01*
X130696078Y-101035594D01*
X131041369Y-101178972D01*
X131415245Y-101179298D01*
X131760786Y-101036523D01*
X132025386Y-100772384D01*
X132147579Y-100478110D01*
X133343180Y-100478110D01*
X133343180Y-100618670D01*
X133439853Y-100852059D01*
X133592655Y-101004860D01*
X133484853Y-101112661D01*
X133388180Y-101346050D01*
X133388180Y-101811610D01*
X133546930Y-101970360D01*
X134396180Y-101970360D01*
X134396180Y-101950360D01*
X134650180Y-101950360D01*
X134650180Y-101970360D01*
X134670180Y-101970360D01*
X134670180Y-102224360D01*
X134650180Y-102224360D01*
X134650180Y-103198610D01*
X134808930Y-103357360D01*
X135149489Y-103357360D01*
X135382878Y-103260687D01*
X135524116Y-103119450D01*
X135559090Y-103173801D01*
X135568443Y-103180191D01*
X135465180Y-103428874D01*
X135464854Y-103802750D01*
X135607629Y-104148291D01*
X135871768Y-104412891D01*
X136217059Y-104556269D01*
X136590935Y-104556595D01*
X136936476Y-104413820D01*
X137201076Y-104149681D01*
X137344454Y-103804390D01*
X137344780Y-103430514D01*
X137292387Y-103303714D01*
X137474621Y-103186450D01*
X137619611Y-102974250D01*
X137670620Y-102722360D01*
X137670620Y-101472360D01*
X137626342Y-101237043D01*
X137487270Y-101020919D01*
X137275070Y-100875929D01*
X137023180Y-100824920D01*
X136027748Y-100824920D01*
X136113180Y-100618670D01*
X136113180Y-100478110D01*
X135954430Y-100319360D01*
X134855180Y-100319360D01*
X134855180Y-100339360D01*
X134601180Y-100339360D01*
X134601180Y-100319360D01*
X133501930Y-100319360D01*
X133343180Y-100478110D01*
X132147579Y-100478110D01*
X132168764Y-100427093D01*
X132169090Y-100053217D01*
X132026315Y-99707676D01*
X131762176Y-99443076D01*
X131416885Y-99299698D01*
X131043009Y-99299372D01*
X130697468Y-99442147D01*
X130683831Y-99455760D01*
X129687047Y-99455760D01*
X129712152Y-99430699D01*
X129855530Y-99085408D01*
X129855856Y-98711532D01*
X129713081Y-98365991D01*
X129448942Y-98101391D01*
X129103651Y-97958013D01*
X128824525Y-97957770D01*
X128825620Y-97952360D01*
X128825620Y-97352360D01*
X128781342Y-97117043D01*
X128717502Y-97017832D01*
X128774611Y-96934250D01*
X128825620Y-96682360D01*
X128825620Y-96082360D01*
X128781342Y-95847043D01*
X128717502Y-95747832D01*
X128774611Y-95664250D01*
X128825620Y-95412360D01*
X128825620Y-94812360D01*
X128781342Y-94577043D01*
X128717502Y-94477832D01*
X128774611Y-94394250D01*
X128825620Y-94142360D01*
X128825620Y-93542360D01*
X128781342Y-93307043D01*
X128717502Y-93207832D01*
X128774611Y-93124250D01*
X128825620Y-92872360D01*
X128825620Y-92272360D01*
X128781342Y-92037043D01*
X128717502Y-91937832D01*
X128774611Y-91854250D01*
X128825620Y-91602360D01*
X128825620Y-91002360D01*
X128781342Y-90767043D01*
X128642270Y-90550919D01*
X128592560Y-90516953D01*
X128715817Y-90220118D01*
X128716143Y-89846242D01*
X128698929Y-89804581D01*
X128903173Y-89889391D01*
X129277049Y-89889717D01*
X129622590Y-89746942D01*
X129683284Y-89686354D01*
X133785751Y-89686354D01*
X133944734Y-89845337D01*
X133944660Y-89929634D01*
X134087435Y-90275175D01*
X134167041Y-90354920D01*
X133978180Y-90354920D01*
X133742863Y-90399198D01*
X133526739Y-90538270D01*
X133381749Y-90750470D01*
X133330740Y-91002360D01*
X133330740Y-91602360D01*
X133375018Y-91837677D01*
X133433358Y-91928340D01*
X133343180Y-92146050D01*
X133343180Y-92286610D01*
X133501930Y-92445360D01*
X134601180Y-92445360D01*
X134601180Y-92425360D01*
X134855180Y-92425360D01*
X134855180Y-92445360D01*
X134875180Y-92445360D01*
X134875180Y-92699360D01*
X134855180Y-92699360D01*
X134855180Y-92719360D01*
X134601180Y-92719360D01*
X134601180Y-92699360D01*
X133501930Y-92699360D01*
X133343180Y-92858110D01*
X133343180Y-92998670D01*
X133356018Y-93029663D01*
X133051062Y-93029397D01*
X132705521Y-93172172D01*
X132440921Y-93436311D01*
X132297543Y-93781602D01*
X132297217Y-94155478D01*
X132439992Y-94501019D01*
X132479712Y-94540809D01*
X132313921Y-94706311D01*
X132170543Y-95051602D01*
X132170217Y-95425478D01*
X132312992Y-95771019D01*
X132352602Y-95810698D01*
X132313921Y-95849311D01*
X132170543Y-96194602D01*
X132170217Y-96568478D01*
X132312992Y-96914019D01*
X132577131Y-97178619D01*
X132699330Y-97229361D01*
X132579537Y-97278858D01*
X132314937Y-97542997D01*
X132171559Y-97888288D01*
X132171233Y-98262164D01*
X132314008Y-98607705D01*
X132578147Y-98872305D01*
X132923438Y-99015683D01*
X133297314Y-99016009D01*
X133330740Y-99002198D01*
X133330740Y-99222360D01*
X133375018Y-99457677D01*
X133433358Y-99548340D01*
X133343180Y-99766050D01*
X133343180Y-99906610D01*
X133501930Y-100065360D01*
X134601180Y-100065360D01*
X134601180Y-100045360D01*
X134855180Y-100045360D01*
X134855180Y-100065360D01*
X135954430Y-100065360D01*
X136113180Y-99906610D01*
X136113180Y-99766050D01*
X136023374Y-99549238D01*
X136074611Y-99474250D01*
X136125620Y-99222360D01*
X136125620Y-99016630D01*
X136627089Y-98515161D01*
X136680860Y-98434687D01*
X136786764Y-98276191D01*
X136801074Y-98204250D01*
X136814394Y-98137287D01*
X138730740Y-100053633D01*
X138730740Y-100492360D01*
X138775018Y-100727677D01*
X138914090Y-100943801D01*
X139126290Y-101088791D01*
X139378180Y-101139800D01*
X140878180Y-101139800D01*
X141113497Y-101095522D01*
X141329621Y-100956450D01*
X141455608Y-100772061D01*
X141465689Y-100776247D01*
X141839565Y-100776573D01*
X142185106Y-100633798D01*
X142449706Y-100369659D01*
X142593084Y-100024368D01*
X142593175Y-99920154D01*
X142715049Y-100215111D01*
X142979188Y-100479711D01*
X143324479Y-100623089D01*
X143698355Y-100623415D01*
X144043896Y-100480640D01*
X144308496Y-100216501D01*
X144451874Y-99871210D01*
X144452200Y-99497334D01*
X144309425Y-99151793D01*
X144045286Y-98887193D01*
X143699995Y-98743815D01*
X143614235Y-98743740D01*
X143220713Y-98350218D01*
X143220713Y-97557110D01*
X143294180Y-97557110D01*
X143294180Y-98022670D01*
X143390853Y-98256059D01*
X143569482Y-98434687D01*
X143802871Y-98531360D01*
X144143430Y-98531360D01*
X144302180Y-98372610D01*
X144302180Y-97398360D01*
X143452930Y-97398360D01*
X143294180Y-97557110D01*
X143220713Y-97557110D01*
X143220713Y-95958964D01*
X143280372Y-95899409D01*
X143280391Y-95899363D01*
X143349853Y-96067059D01*
X143480155Y-96197360D01*
X143390853Y-96286661D01*
X143294180Y-96520050D01*
X143294180Y-96985610D01*
X143452930Y-97144360D01*
X144302180Y-97144360D01*
X144302180Y-97124360D01*
X144556180Y-97124360D01*
X144556180Y-97144360D01*
X144576180Y-97144360D01*
X144576180Y-97398360D01*
X144556180Y-97398360D01*
X144556180Y-98372610D01*
X144714930Y-98531360D01*
X145055489Y-98531360D01*
X145288878Y-98434687D01*
X145430116Y-98293450D01*
X145465090Y-98347801D01*
X145677290Y-98492791D01*
X145929180Y-98543800D01*
X146929180Y-98543800D01*
X147164497Y-98499522D01*
X147380621Y-98360450D01*
X147525611Y-98148250D01*
X147576620Y-97896360D01*
X147576620Y-97449392D01*
X147710669Y-97583675D01*
X147740580Y-97596095D01*
X147740580Y-99345756D01*
X147680921Y-99405311D01*
X147537543Y-99750602D01*
X147537217Y-100124478D01*
X147679992Y-100470019D01*
X147944131Y-100734619D01*
X148289422Y-100877997D01*
X148663298Y-100878323D01*
X148975168Y-100749461D01*
X149087131Y-100861619D01*
X149432422Y-101004997D01*
X149806298Y-101005323D01*
X150151839Y-100862548D01*
X150416439Y-100598409D01*
X150559817Y-100253118D01*
X150560143Y-99879242D01*
X150417368Y-99533701D01*
X150356780Y-99473007D01*
X150356780Y-97236162D01*
X150300710Y-96954277D01*
X150161461Y-96745876D01*
X150161543Y-96651444D01*
X150038972Y-96354800D01*
X151288180Y-96354800D01*
X151523497Y-96310522D01*
X151739621Y-96171450D01*
X151884611Y-95959250D01*
X151935620Y-95707360D01*
X151935620Y-95257360D01*
X151916113Y-95153689D01*
X151935620Y-95057360D01*
X151935620Y-94918960D01*
X155243070Y-94918960D01*
X155868580Y-95544470D01*
X155868580Y-101970360D01*
X155924650Y-102252245D01*
X156084325Y-102491215D01*
X158761059Y-105167949D01*
X158686776Y-105346841D01*
X158686225Y-105978388D01*
X158927398Y-106562072D01*
X159373579Y-107009032D01*
X159956841Y-107251224D01*
X160588388Y-107251775D01*
X161172072Y-107010602D01*
X161619032Y-106564421D01*
X161861224Y-105981159D01*
X161861775Y-105349612D01*
X161620602Y-104765928D01*
X161249065Y-104393743D01*
X161619032Y-104024421D01*
X161861224Y-103441159D01*
X161861775Y-102809612D01*
X161620602Y-102225928D01*
X161249065Y-101853743D01*
X161619032Y-101484421D01*
X161861224Y-100901159D01*
X161861775Y-100269612D01*
X161620602Y-99685928D01*
X161249065Y-99313743D01*
X161619032Y-98944421D01*
X161861224Y-98361159D01*
X161861775Y-97729612D01*
X161620602Y-97145928D01*
X161261743Y-96786443D01*
X161644432Y-96404421D01*
X161886624Y-95821159D01*
X161887175Y-95189612D01*
X161646002Y-94605928D01*
X161274465Y-94233743D01*
X161644432Y-93864421D01*
X161886624Y-93281159D01*
X161887175Y-92649612D01*
X161646002Y-92065928D01*
X161261788Y-91681043D01*
X161619032Y-91324421D01*
X161861224Y-90741159D01*
X161861775Y-90109612D01*
X161620602Y-89525928D01*
X161249065Y-89153743D01*
X161619032Y-88784421D01*
X161861224Y-88201159D01*
X161861775Y-87569612D01*
X161620602Y-86985928D01*
X161249065Y-86613743D01*
X161619032Y-86244421D01*
X161861224Y-85661159D01*
X161861775Y-85029612D01*
X161620602Y-84445928D01*
X161249065Y-84073743D01*
X161619032Y-83704421D01*
X161861224Y-83121159D01*
X161861775Y-82489612D01*
X161620602Y-81905928D01*
X161174421Y-81458968D01*
X160591159Y-81216776D01*
X159959612Y-81216225D01*
X159375928Y-81457398D01*
X158928968Y-81903579D01*
X158686776Y-82486841D01*
X158686225Y-83118388D01*
X158927398Y-83702072D01*
X159298935Y-84074257D01*
X158928968Y-84443579D01*
X158686776Y-85026841D01*
X158686225Y-85658388D01*
X158927398Y-86242072D01*
X159298935Y-86614257D01*
X158928968Y-86983579D01*
X158686776Y-87566841D01*
X158686225Y-88198388D01*
X158927398Y-88782072D01*
X159298935Y-89154257D01*
X158928968Y-89523579D01*
X158686776Y-90106841D01*
X158686599Y-90309489D01*
X157092167Y-88715057D01*
X157092206Y-88670175D01*
X156949431Y-88324634D01*
X156685292Y-88060034D01*
X156340001Y-87916656D01*
X155966125Y-87916330D01*
X155620584Y-88059105D01*
X155355984Y-88323244D01*
X155212606Y-88668535D01*
X155212427Y-88873797D01*
X155039762Y-89046161D01*
X154896384Y-89391452D01*
X154896058Y-89765328D01*
X155038833Y-90110869D01*
X155302972Y-90375469D01*
X155648263Y-90518847D01*
X155749809Y-90518936D01*
X158076396Y-92845523D01*
X158076396Y-94084766D01*
X158132466Y-94366651D01*
X158292141Y-94605621D01*
X158759468Y-95072948D01*
X158712176Y-95186841D01*
X158711625Y-95818388D01*
X158952798Y-96402072D01*
X159311657Y-96761557D01*
X158928968Y-97143579D01*
X158686776Y-97726841D01*
X158686225Y-98358388D01*
X158927398Y-98942072D01*
X159298935Y-99314257D01*
X158928968Y-99683579D01*
X158686776Y-100266841D01*
X158686599Y-100470069D01*
X157976780Y-99760250D01*
X157976780Y-94858360D01*
X157920710Y-94576475D01*
X157761035Y-94337505D01*
X155785035Y-92361505D01*
X155546065Y-92201830D01*
X155264180Y-92145760D01*
X151935620Y-92145760D01*
X151935620Y-92007360D01*
X151916113Y-91903689D01*
X151935620Y-91807360D01*
X151935620Y-91357360D01*
X151891342Y-91122043D01*
X151752270Y-90905919D01*
X151540070Y-90760929D01*
X151437419Y-90740142D01*
X151483771Y-90628515D01*
X151484097Y-90254639D01*
X151341322Y-89909098D01*
X151077183Y-89644498D01*
X151005379Y-89614682D01*
X151005379Y-87023320D01*
X151398180Y-87101453D01*
X151966465Y-86988414D01*
X152448234Y-86666507D01*
X152770141Y-86184738D01*
X152883180Y-85616453D01*
X152883180Y-85558267D01*
X152770141Y-84989982D01*
X152448234Y-84508213D01*
X152162602Y-84317360D01*
X152448234Y-84126507D01*
X152770141Y-83644738D01*
X152883180Y-83076453D01*
X152883180Y-83018267D01*
X152770141Y-82449982D01*
X152448234Y-81968213D01*
X151966465Y-81646306D01*
X151398180Y-81533267D01*
X150829895Y-81646306D01*
X150348126Y-81968213D01*
X150128180Y-82297386D01*
X149908234Y-81968213D01*
X149426465Y-81646306D01*
X148858180Y-81533267D01*
X148289895Y-81646306D01*
X147808126Y-81968213D01*
X147588180Y-82297386D01*
X147368234Y-81968213D01*
X146886465Y-81646306D01*
X146318180Y-81533267D01*
X145749895Y-81646306D01*
X145268126Y-81968213D01*
X145048180Y-82297386D01*
X144828234Y-81968213D01*
X144346465Y-81646306D01*
X143778180Y-81533267D01*
X143209895Y-81646306D01*
X142728126Y-81968213D01*
X142508180Y-82297386D01*
X142288234Y-81968213D01*
X141806465Y-81646306D01*
X141238180Y-81533267D01*
X140669895Y-81646306D01*
X140188126Y-81968213D01*
X139968180Y-82297386D01*
X139748234Y-81968213D01*
X139266465Y-81646306D01*
X138698180Y-81533267D01*
X138129895Y-81646306D01*
X137648126Y-81968213D01*
X137428180Y-82297386D01*
X137208234Y-81968213D01*
X136726465Y-81646306D01*
X136158180Y-81533267D01*
X135589895Y-81646306D01*
X135108126Y-81968213D01*
X134888180Y-82297386D01*
X134668234Y-81968213D01*
X134186465Y-81646306D01*
X133618180Y-81533267D01*
X133049895Y-81646306D01*
X132568126Y-81968213D01*
X132348180Y-82297386D01*
X132128234Y-81968213D01*
X131646465Y-81646306D01*
X131078180Y-81533267D01*
X130509895Y-81646306D01*
X130028126Y-81968213D01*
X129808180Y-82297386D01*
X129588234Y-81968213D01*
X129106465Y-81646306D01*
X128538180Y-81533267D01*
X127969895Y-81646306D01*
X127488126Y-81968213D01*
X127268180Y-82297386D01*
X127048234Y-81968213D01*
X126566465Y-81646306D01*
X125998180Y-81533267D01*
X125429895Y-81646306D01*
X124948126Y-81968213D01*
X124728180Y-82297386D01*
X124508234Y-81968213D01*
X124026465Y-81646306D01*
X123458180Y-81533267D01*
X122889895Y-81646306D01*
X122408126Y-81968213D01*
X122188180Y-82297386D01*
X121968234Y-81968213D01*
X121486465Y-81646306D01*
X120918180Y-81533267D01*
X120349895Y-81646306D01*
X119868126Y-81968213D01*
X119546219Y-82449982D01*
X119433180Y-83018267D01*
X119433180Y-83076453D01*
X119546219Y-83644738D01*
X119868126Y-84126507D01*
X119869359Y-84127331D01*
X119832863Y-84134198D01*
X119616739Y-84273270D01*
X119471749Y-84485470D01*
X119420740Y-84737360D01*
X119420740Y-84761860D01*
X115644812Y-84761860D01*
X115328906Y-84824697D01*
X115061095Y-85003643D01*
X110311000Y-89753738D01*
X110311000Y-80847000D01*
X162104000Y-80847000D01*
X162104000Y-128703000D01*
M02*
