G04 #@! TF.FileFunction,Soldermask,Top*
%FSLAX46Y46*%
G04 Gerber Fmt 4.6, Leading zero omitted, Abs format (unit mm)*
G04 Created by KiCad (PCBNEW 4.0.6) date 01/08/18 13:51:24*
%MOMM*%
%LPD*%
G01*
G04 APERTURE LIST*
%ADD10C,0.101600*%
%ADD11C,2.305000*%
%ADD12C,0.476200*%
%ADD13R,1.750000X1.750000*%
%ADD14O,1.750000X1.750000*%
%ADD15R,1.400000X1.650000*%
%ADD16R,1.650000X1.400000*%
%ADD17R,2.100000X2.100000*%
%ADD18O,2.100000X2.100000*%
%ADD19C,2.100000*%
%ADD20R,1.900000X1.000000*%
%ADD21R,1.900000X0.850000*%
%ADD22R,0.800000X1.400000*%
G04 APERTURE END LIST*
D10*
D11*
X112014000Y-91948000D03*
X112039400Y-94513400D03*
X112039400Y-97053400D03*
X112039400Y-99593400D03*
X112064800Y-102133400D03*
X112039400Y-104673400D03*
X112039400Y-107213400D03*
X112014000Y-109728000D03*
X112014000Y-114808000D03*
X112014000Y-117348000D03*
X112014000Y-127508000D03*
X160274000Y-127508000D03*
X112014000Y-124968000D03*
X112014000Y-119888000D03*
X112014000Y-122428000D03*
X160274000Y-124968000D03*
X160274000Y-122428000D03*
X160274000Y-119888000D03*
X160274000Y-117348000D03*
X160274000Y-114808000D03*
X160299400Y-95504000D03*
X160299400Y-92964000D03*
X160274000Y-90424000D03*
X160274000Y-103124000D03*
X160274000Y-98044000D03*
X160274000Y-105664000D03*
X160274000Y-112268000D03*
X160274000Y-109728000D03*
X160274000Y-100584000D03*
X160274000Y-87884000D03*
X160274000Y-85344000D03*
X160274000Y-82804000D03*
D12*
X109474000Y-75438000D03*
D13*
X123458180Y-106860360D03*
D14*
X125458180Y-106860360D03*
X123458180Y-108860360D03*
X125458180Y-108860360D03*
X123458180Y-110860360D03*
X125458180Y-110860360D03*
X123458180Y-112860360D03*
X125458180Y-112860360D03*
X123458180Y-114860360D03*
X125458180Y-114860360D03*
D15*
X121777000Y-101981000D03*
X119777000Y-101981000D03*
X134523180Y-102097360D03*
X136523180Y-102097360D03*
X144429180Y-97271360D03*
X146429180Y-97271360D03*
X142891000Y-112268000D03*
X144891000Y-112268000D03*
X142651180Y-124703360D03*
X144651180Y-124703360D03*
X145445180Y-122671360D03*
X147445180Y-122671360D03*
X143254180Y-122671360D03*
X141254180Y-122671360D03*
D16*
X149366180Y-124052360D03*
X149366180Y-122052360D03*
D17*
X120918180Y-85587360D03*
D18*
X120918180Y-83047360D03*
X123458180Y-85587360D03*
X123458180Y-83047360D03*
X125998180Y-85587360D03*
X125998180Y-83047360D03*
X128538180Y-85587360D03*
X128538180Y-83047360D03*
X131078180Y-85587360D03*
X131078180Y-83047360D03*
X133618180Y-85587360D03*
X133618180Y-83047360D03*
X136158180Y-85587360D03*
X136158180Y-83047360D03*
X138698180Y-85587360D03*
X138698180Y-83047360D03*
X141238180Y-85587360D03*
X141238180Y-83047360D03*
X143778180Y-85587360D03*
X143778180Y-83047360D03*
X146318180Y-85587360D03*
X146318180Y-83047360D03*
X148858180Y-85587360D03*
X148858180Y-83047360D03*
X151398180Y-85587360D03*
X151398180Y-83047360D03*
D17*
X133999180Y-120142000D03*
D18*
X133999180Y-122682000D03*
X131459180Y-120142000D03*
X131459180Y-122682000D03*
X128919180Y-120142000D03*
X128919180Y-122682000D03*
X126379180Y-120142000D03*
X126379180Y-122682000D03*
X123839180Y-120142000D03*
X123839180Y-122682000D03*
D19*
X154446180Y-122671360D03*
D18*
X154446180Y-120131360D03*
D20*
X127428180Y-100192360D03*
X127428180Y-98922360D03*
X127428180Y-97652360D03*
X127428180Y-96382360D03*
X127428180Y-95112360D03*
X127428180Y-93842360D03*
X127428180Y-92572360D03*
X127428180Y-91302360D03*
X122028180Y-91302360D03*
X122028180Y-92572360D03*
X122028180Y-93842360D03*
X122028180Y-95112360D03*
X122028180Y-96382360D03*
X122028180Y-97652360D03*
X122028180Y-98922360D03*
X122028180Y-100192360D03*
X140128180Y-100192360D03*
X140128180Y-98922360D03*
X140128180Y-97652360D03*
X140128180Y-96382360D03*
X140128180Y-95112360D03*
X140128180Y-93842360D03*
X140128180Y-92572360D03*
X140128180Y-91302360D03*
X134728180Y-91302360D03*
X134728180Y-92572360D03*
X134728180Y-93842360D03*
X134728180Y-95112360D03*
X134728180Y-96382360D03*
X134728180Y-97652360D03*
X134728180Y-98922360D03*
X134728180Y-100192360D03*
D21*
X150538180Y-95482360D03*
X150538180Y-94832360D03*
X150538180Y-94182360D03*
X150538180Y-93532360D03*
X150538180Y-92882360D03*
X150538180Y-92232360D03*
X150538180Y-91582360D03*
X144638180Y-91582360D03*
X144638180Y-92232360D03*
X144638180Y-92882360D03*
X144638180Y-93532360D03*
X144638180Y-94182360D03*
X144638180Y-94832360D03*
X144638180Y-95482360D03*
D22*
X143281180Y-120491360D03*
X143931180Y-120491360D03*
X144581180Y-120491360D03*
X145231180Y-120491360D03*
X145881180Y-120491360D03*
X146531180Y-120491360D03*
X147181180Y-120491360D03*
X147831180Y-120491360D03*
X147831180Y-114691360D03*
X147181180Y-114691360D03*
X146531180Y-114691360D03*
X145881180Y-114691360D03*
X145231180Y-114691360D03*
X144581180Y-114691360D03*
X143931180Y-114691360D03*
X143281180Y-114691360D03*
M02*
