G04 #@! TF.FileFunction,Copper,L2,Bot,Signal*
%FSLAX46Y46*%
G04 Gerber Fmt 4.6, Leading zero omitted, Abs format (unit mm)*
G04 Created by KiCad (PCBNEW 4.0.6) date 01/08/18 13:51:24*
%MOMM*%
%LPD*%
G01*
G04 APERTURE LIST*
%ADD10C,0.101600*%
%ADD11C,1.905000*%
%ADD12C,0.076200*%
%ADD13R,1.350000X1.350000*%
%ADD14O,1.350000X1.350000*%
%ADD15R,1.700000X1.700000*%
%ADD16O,1.700000X1.700000*%
%ADD17C,1.700000*%
%ADD18C,0.609600*%
%ADD19C,0.203200*%
%ADD20C,0.254000*%
G04 APERTURE END LIST*
D10*
D11*
X112014000Y-91948000D03*
X112039400Y-94513400D03*
X112039400Y-97053400D03*
X112039400Y-99593400D03*
X112064800Y-102133400D03*
X112039400Y-104673400D03*
X112039400Y-107213400D03*
X112014000Y-109728000D03*
X112014000Y-114808000D03*
X112014000Y-117348000D03*
X112014000Y-127508000D03*
X160274000Y-127508000D03*
X112014000Y-124968000D03*
X112014000Y-119888000D03*
X112014000Y-122428000D03*
X160274000Y-124968000D03*
X160274000Y-122428000D03*
X160274000Y-119888000D03*
X160274000Y-117348000D03*
X160274000Y-114808000D03*
X160299400Y-95504000D03*
X160299400Y-92964000D03*
X160274000Y-90424000D03*
X160274000Y-103124000D03*
X160274000Y-98044000D03*
X160274000Y-105664000D03*
X160274000Y-112268000D03*
X160274000Y-109728000D03*
X160274000Y-100584000D03*
X160274000Y-87884000D03*
X160274000Y-85344000D03*
X160274000Y-82804000D03*
D12*
X109474000Y-75438000D03*
D13*
X123458180Y-106860360D03*
D14*
X125458180Y-106860360D03*
X123458180Y-108860360D03*
X125458180Y-108860360D03*
X123458180Y-110860360D03*
X125458180Y-110860360D03*
X123458180Y-112860360D03*
X125458180Y-112860360D03*
X123458180Y-114860360D03*
X125458180Y-114860360D03*
D15*
X120918180Y-85587360D03*
D16*
X120918180Y-83047360D03*
X123458180Y-85587360D03*
X123458180Y-83047360D03*
X125998180Y-85587360D03*
X125998180Y-83047360D03*
X128538180Y-85587360D03*
X128538180Y-83047360D03*
X131078180Y-85587360D03*
X131078180Y-83047360D03*
X133618180Y-85587360D03*
X133618180Y-83047360D03*
X136158180Y-85587360D03*
X136158180Y-83047360D03*
X138698180Y-85587360D03*
X138698180Y-83047360D03*
X141238180Y-85587360D03*
X141238180Y-83047360D03*
X143778180Y-85587360D03*
X143778180Y-83047360D03*
X146318180Y-85587360D03*
X146318180Y-83047360D03*
X148858180Y-85587360D03*
X148858180Y-83047360D03*
X151398180Y-85587360D03*
X151398180Y-83047360D03*
D15*
X133999180Y-120142000D03*
D16*
X133999180Y-122682000D03*
X131459180Y-120142000D03*
X131459180Y-122682000D03*
X128919180Y-120142000D03*
X128919180Y-122682000D03*
X126379180Y-120142000D03*
X126379180Y-122682000D03*
X123839180Y-120142000D03*
X123839180Y-122682000D03*
D17*
X154446180Y-122671360D03*
D16*
X154446180Y-120131360D03*
D18*
X119634000Y-99949000D03*
X144855946Y-113522043D03*
X136404817Y-103616632D03*
X148731180Y-125211360D03*
X139841180Y-122671360D03*
X150544134Y-90440757D03*
X140158832Y-90036411D03*
X133110180Y-96382360D03*
X149112180Y-95366360D03*
X127776180Y-90032360D03*
X146445180Y-95620360D03*
X156152243Y-88856293D03*
X128915893Y-98897650D03*
X133237180Y-93969360D03*
X133111196Y-98076046D03*
X129090931Y-88949754D03*
X155836021Y-89579210D03*
X134884623Y-89743516D03*
X120537180Y-91302360D03*
X148243718Y-96787416D03*
X148477180Y-99938360D03*
X146445180Y-92826360D03*
X149221580Y-96837562D03*
X149620180Y-100065360D03*
X146191180Y-91302360D03*
X143512237Y-99683452D03*
X142484113Y-95366360D03*
X133110180Y-95239360D03*
X131229127Y-100239335D03*
X141653447Y-99836610D03*
D19*
X155721191Y-88856293D02*
X156152243Y-88856293D01*
X133237180Y-93969360D02*
X133237180Y-90339531D01*
X134720418Y-88856293D02*
X155721191Y-88856293D01*
X133237180Y-90339531D02*
X134720418Y-88856293D01*
X128915893Y-98897650D02*
X125458180Y-102355363D01*
X125458180Y-102355363D02*
X125458180Y-106860360D01*
X128915893Y-98466598D02*
X128915893Y-98897650D01*
X128915893Y-98290647D02*
X128915893Y-98466598D01*
X133237180Y-93969360D02*
X128915893Y-98290647D01*
X125458180Y-108860360D02*
X129045042Y-105273498D01*
X129045042Y-105273498D02*
X129045042Y-101509456D01*
X129045042Y-101509456D02*
X132490946Y-98063552D01*
X132490946Y-98063552D02*
X133098702Y-98063552D01*
X133098702Y-98063552D02*
X133111196Y-98076046D01*
X133153882Y-98033360D02*
X133111196Y-98076046D01*
X160288180Y-98033360D02*
X133153882Y-98033360D01*
X128659879Y-88949754D02*
X129090931Y-88949754D01*
X122889786Y-88949754D02*
X128659879Y-88949754D01*
X120537180Y-91302360D02*
X122889786Y-88949754D01*
X135189422Y-89438717D02*
X155695528Y-89438717D01*
X134884623Y-89743516D02*
X135189422Y-89438717D01*
X155695528Y-89438717D02*
X155836021Y-89579210D01*
X123458180Y-108860360D02*
X120537180Y-105939360D01*
X120537180Y-105939360D02*
X120537180Y-91302360D01*
X160288180Y-112257360D02*
X159076134Y-112257360D01*
X148477180Y-101658406D02*
X148477180Y-99938360D01*
X159076134Y-112257360D02*
X148477180Y-101658406D01*
X147938919Y-96482617D02*
X148243718Y-96787416D01*
X146445180Y-92826360D02*
X147461180Y-93842360D01*
X147461180Y-93842360D02*
X147461180Y-96004878D01*
X147461180Y-96004878D02*
X147938919Y-96482617D01*
X160288180Y-109717360D02*
X157202346Y-109717360D01*
X157202346Y-109717360D02*
X149620180Y-102135194D01*
X149620180Y-102135194D02*
X149620180Y-100065360D01*
X148916781Y-96532763D02*
X149221580Y-96837562D01*
X148155320Y-93266500D02*
X148155320Y-95771302D01*
X148155320Y-95771302D02*
X148916781Y-96532763D01*
X146191180Y-91302360D02*
X148155320Y-93266500D01*
X160274000Y-114808000D02*
X158917086Y-113451086D01*
X158917086Y-113451086D02*
X158917086Y-112734300D01*
X158917086Y-112734300D02*
X145866238Y-99683452D01*
X145866238Y-99683452D02*
X143943289Y-99683452D01*
X143943289Y-99683452D02*
X143512237Y-99683452D01*
X142357113Y-95239360D02*
X142484113Y-95366360D01*
X133110180Y-95239360D02*
X142357113Y-95239360D01*
X160274000Y-117348000D02*
X158479188Y-115553188D01*
X158479188Y-115553188D02*
X158479188Y-112957774D01*
X158479188Y-112957774D02*
X145789076Y-100267662D01*
X142084499Y-100267662D02*
X141958246Y-100141409D01*
X145789076Y-100267662D02*
X142084499Y-100267662D01*
X141958246Y-100141409D02*
X141653447Y-99836610D01*
X131631852Y-99836610D02*
X131533926Y-99934536D01*
X131533926Y-99934536D02*
X131229127Y-100239335D01*
X141653447Y-99836610D02*
X131631852Y-99836610D01*
D20*
G36*
X162104000Y-128703000D02*
X161323939Y-128703000D01*
X161619032Y-128408421D01*
X161861224Y-127825159D01*
X161861775Y-127193612D01*
X161620602Y-126609928D01*
X161249065Y-126237743D01*
X161619032Y-125868421D01*
X161861224Y-125285159D01*
X161861775Y-124653612D01*
X161620602Y-124069928D01*
X161249065Y-123697743D01*
X161619032Y-123328421D01*
X161861224Y-122745159D01*
X161861775Y-122113612D01*
X161620602Y-121529928D01*
X161249065Y-121157743D01*
X161619032Y-120788421D01*
X161861224Y-120205159D01*
X161861775Y-119573612D01*
X161620602Y-118989928D01*
X161249065Y-118617743D01*
X161619032Y-118248421D01*
X161861224Y-117665159D01*
X161861775Y-117033612D01*
X161620602Y-116449928D01*
X161249065Y-116077743D01*
X161619032Y-115708421D01*
X161861224Y-115125159D01*
X161861775Y-114493612D01*
X161620602Y-113909928D01*
X161249065Y-113537743D01*
X161619032Y-113168421D01*
X161861224Y-112585159D01*
X161861775Y-111953612D01*
X161620602Y-111369928D01*
X161249065Y-110997743D01*
X161619032Y-110628421D01*
X161861224Y-110045159D01*
X161861775Y-109413612D01*
X161620602Y-108829928D01*
X161174421Y-108382968D01*
X160591159Y-108140776D01*
X159959612Y-108140225D01*
X159375928Y-108381398D01*
X158928968Y-108827579D01*
X158865362Y-108980760D01*
X157507456Y-108980760D01*
X150356780Y-101830084D01*
X150356780Y-100657964D01*
X150416439Y-100598409D01*
X150559817Y-100253118D01*
X150560143Y-99879242D01*
X150417368Y-99533701D01*
X150153229Y-99269101D01*
X149807938Y-99125723D01*
X149434062Y-99125397D01*
X149122192Y-99254259D01*
X149010229Y-99142101D01*
X148664938Y-98998723D01*
X148291062Y-98998397D01*
X147945521Y-99141172D01*
X147680921Y-99405311D01*
X147537543Y-99750602D01*
X147537217Y-100124478D01*
X147669766Y-100445270D01*
X146387093Y-99162597D01*
X146148123Y-99002922D01*
X145866238Y-98946852D01*
X144104841Y-98946852D01*
X144045286Y-98887193D01*
X143762959Y-98769960D01*
X158856283Y-98769960D01*
X158927398Y-98942072D01*
X159298935Y-99314257D01*
X158928968Y-99683579D01*
X158686776Y-100266841D01*
X158686225Y-100898388D01*
X158927398Y-101482072D01*
X159298935Y-101854257D01*
X158928968Y-102223579D01*
X158686776Y-102806841D01*
X158686225Y-103438388D01*
X158927398Y-104022072D01*
X159298935Y-104394257D01*
X158928968Y-104763579D01*
X158686776Y-105346841D01*
X158686225Y-105978388D01*
X158927398Y-106562072D01*
X159373579Y-107009032D01*
X159956841Y-107251224D01*
X160588388Y-107251775D01*
X161172072Y-107010602D01*
X161619032Y-106564421D01*
X161861224Y-105981159D01*
X161861775Y-105349612D01*
X161620602Y-104765928D01*
X161249065Y-104393743D01*
X161619032Y-104024421D01*
X161861224Y-103441159D01*
X161861775Y-102809612D01*
X161620602Y-102225928D01*
X161249065Y-101853743D01*
X161619032Y-101484421D01*
X161861224Y-100901159D01*
X161861775Y-100269612D01*
X161620602Y-99685928D01*
X161249065Y-99313743D01*
X161619032Y-98944421D01*
X161861224Y-98361159D01*
X161861775Y-97729612D01*
X161620602Y-97145928D01*
X161261743Y-96786443D01*
X161644432Y-96404421D01*
X161886624Y-95821159D01*
X161887175Y-95189612D01*
X161646002Y-94605928D01*
X161274465Y-94233743D01*
X161644432Y-93864421D01*
X161886624Y-93281159D01*
X161887175Y-92649612D01*
X161646002Y-92065928D01*
X161199821Y-91618968D01*
X161187188Y-91613722D01*
X161212554Y-91542159D01*
X160274000Y-90603605D01*
X159335446Y-91542159D01*
X159372364Y-91646312D01*
X158954368Y-92063579D01*
X158712176Y-92646841D01*
X158711625Y-93278388D01*
X158952798Y-93862072D01*
X159324335Y-94234257D01*
X158954368Y-94603579D01*
X158712176Y-95186841D01*
X158711625Y-95818388D01*
X158952798Y-96402072D01*
X159311657Y-96761557D01*
X158928968Y-97143579D01*
X158865362Y-97296760D01*
X150048505Y-97296760D01*
X150161217Y-97025320D01*
X150161543Y-96651444D01*
X150018768Y-96305903D01*
X149754629Y-96041303D01*
X149409338Y-95897925D01*
X149323578Y-95897850D01*
X148891920Y-95466192D01*
X148891920Y-93266500D01*
X148835850Y-92984615D01*
X148676175Y-92745645D01*
X147131069Y-91200539D01*
X147131143Y-91116242D01*
X146988368Y-90770701D01*
X146724229Y-90506101D01*
X146378938Y-90362723D01*
X146005062Y-90362397D01*
X145659521Y-90505172D01*
X145394921Y-90769311D01*
X145251543Y-91114602D01*
X145251217Y-91488478D01*
X145393992Y-91834019D01*
X145658131Y-92098619D01*
X145789365Y-92153112D01*
X145648921Y-92293311D01*
X145505543Y-92638602D01*
X145505217Y-93012478D01*
X145647992Y-93358019D01*
X145912131Y-93622619D01*
X146257422Y-93765997D01*
X146343182Y-93766072D01*
X146724580Y-94147470D01*
X146724580Y-96004878D01*
X146780650Y-96286763D01*
X146940325Y-96525733D01*
X147303829Y-96889237D01*
X147303755Y-96973534D01*
X147437310Y-97296760D01*
X133661188Y-97296760D01*
X133644245Y-97279787D01*
X133298954Y-97136409D01*
X132925078Y-97136083D01*
X132579537Y-97278858D01*
X132531359Y-97326952D01*
X132490946Y-97326952D01*
X132209061Y-97383022D01*
X131970091Y-97542697D01*
X128524187Y-100988601D01*
X128364512Y-101227571D01*
X128308442Y-101509456D01*
X128308442Y-104968388D01*
X126731233Y-106545597D01*
X126694126Y-106359045D01*
X126410154Y-105934050D01*
X126194780Y-105790142D01*
X126194780Y-102660473D01*
X129017714Y-99837539D01*
X129102011Y-99837613D01*
X129447552Y-99694838D01*
X129712152Y-99430699D01*
X129855530Y-99085408D01*
X129855856Y-98711532D01*
X129762546Y-98485704D01*
X132395040Y-95853210D01*
X132577131Y-96035619D01*
X132922422Y-96178997D01*
X133296298Y-96179323D01*
X133641839Y-96036548D01*
X133702533Y-95975960D01*
X141764730Y-95975960D01*
X141951064Y-96162619D01*
X142296355Y-96305997D01*
X142670231Y-96306323D01*
X143015772Y-96163548D01*
X143280372Y-95899409D01*
X143423750Y-95554118D01*
X143424076Y-95180242D01*
X143281301Y-94834701D01*
X143017162Y-94570101D01*
X142671871Y-94426723D01*
X142297995Y-94426397D01*
X142113183Y-94502760D01*
X134033087Y-94502760D01*
X134033439Y-94502409D01*
X134176817Y-94157118D01*
X134177143Y-93783242D01*
X134034368Y-93437701D01*
X133973780Y-93377007D01*
X133973780Y-90644641D01*
X134215229Y-90403192D01*
X134351574Y-90539775D01*
X134696865Y-90683153D01*
X135070741Y-90683479D01*
X135416282Y-90540704D01*
X135680882Y-90276565D01*
X135722924Y-90175317D01*
X155103169Y-90175317D01*
X155302972Y-90375469D01*
X155648263Y-90518847D01*
X156022139Y-90519173D01*
X156367680Y-90376398D01*
X156573635Y-90170801D01*
X158675325Y-90170801D01*
X158700122Y-90801861D01*
X158893912Y-91269712D01*
X159155841Y-91362554D01*
X160094395Y-90424000D01*
X160453605Y-90424000D01*
X161392159Y-91362554D01*
X161654088Y-91269712D01*
X161872675Y-90677199D01*
X161847878Y-90046139D01*
X161654088Y-89578288D01*
X161392159Y-89485446D01*
X160453605Y-90424000D01*
X160094395Y-90424000D01*
X159155841Y-89485446D01*
X158893912Y-89578288D01*
X158675325Y-90170801D01*
X156573635Y-90170801D01*
X156632280Y-90112259D01*
X156775658Y-89766968D01*
X156775837Y-89561706D01*
X156948502Y-89389342D01*
X157091880Y-89044051D01*
X157092206Y-88670175D01*
X156949431Y-88324634D01*
X156685292Y-88060034D01*
X156340001Y-87916656D01*
X155966125Y-87916330D01*
X155620584Y-88059105D01*
X155559890Y-88119693D01*
X134720418Y-88119693D01*
X134438533Y-88175763D01*
X134199563Y-88335438D01*
X132716325Y-89818676D01*
X132556650Y-90057646D01*
X132500580Y-90339531D01*
X132500580Y-93376756D01*
X132440921Y-93436311D01*
X132297543Y-93781602D01*
X132297468Y-93867362D01*
X128395038Y-97769792D01*
X128235363Y-98008762D01*
X128179293Y-98290647D01*
X128179293Y-98305046D01*
X128119634Y-98364601D01*
X127976256Y-98709892D01*
X127976181Y-98795652D01*
X124937325Y-101834508D01*
X124777650Y-102073478D01*
X124721580Y-102355363D01*
X124721580Y-105790142D01*
X124659948Y-105831323D01*
X124597270Y-105733919D01*
X124385070Y-105588929D01*
X124133180Y-105537920D01*
X122783180Y-105537920D01*
X122547863Y-105582198D01*
X122331739Y-105721270D01*
X122186749Y-105933470D01*
X122135740Y-106185360D01*
X122135740Y-106496210D01*
X121273780Y-105634250D01*
X121273780Y-91894964D01*
X121333439Y-91835409D01*
X121476817Y-91490118D01*
X121476892Y-91404358D01*
X123194896Y-89686354D01*
X128498327Y-89686354D01*
X128557882Y-89746013D01*
X128903173Y-89889391D01*
X129277049Y-89889717D01*
X129622590Y-89746942D01*
X129887190Y-89482803D01*
X130030568Y-89137512D01*
X130030894Y-88763636D01*
X129888119Y-88418095D01*
X129623980Y-88153495D01*
X129278689Y-88010117D01*
X128904813Y-88009791D01*
X128559272Y-88152566D01*
X128498578Y-88213154D01*
X122889786Y-88213154D01*
X122607901Y-88269224D01*
X122368931Y-88428899D01*
X120435359Y-90362471D01*
X120351062Y-90362397D01*
X120005521Y-90505172D01*
X119740921Y-90769311D01*
X119597543Y-91114602D01*
X119597217Y-91488478D01*
X119739992Y-91834019D01*
X119800580Y-91894713D01*
X119800580Y-105939360D01*
X119856650Y-106221245D01*
X120016325Y-106460215D01*
X122171286Y-108615176D01*
X122122516Y-108860360D01*
X122222234Y-109361675D01*
X122506206Y-109786670D01*
X122616491Y-109860360D01*
X122506206Y-109934050D01*
X122222234Y-110359045D01*
X122122516Y-110860360D01*
X122222234Y-111361675D01*
X122506206Y-111786670D01*
X122623866Y-111865288D01*
X122328702Y-112196727D01*
X122190270Y-112530960D01*
X122313956Y-112733360D01*
X123331180Y-112733360D01*
X123331180Y-112713360D01*
X123585180Y-112713360D01*
X123585180Y-112733360D01*
X125331180Y-112733360D01*
X125331180Y-112713360D01*
X125585180Y-112713360D01*
X125585180Y-112733360D01*
X126602404Y-112733360D01*
X126726090Y-112530960D01*
X126587658Y-112196727D01*
X126292494Y-111865288D01*
X126410154Y-111786670D01*
X126694126Y-111361675D01*
X126793844Y-110860360D01*
X126694126Y-110359045D01*
X126410154Y-109934050D01*
X126299869Y-109860360D01*
X126410154Y-109786670D01*
X126694126Y-109361675D01*
X126793844Y-108860360D01*
X126745074Y-108615176D01*
X129565897Y-105794353D01*
X129725572Y-105555383D01*
X129781642Y-105273498D01*
X129781642Y-101814566D01*
X130628405Y-100967803D01*
X130696078Y-101035594D01*
X131041369Y-101178972D01*
X131415245Y-101179298D01*
X131760786Y-101036523D01*
X132025386Y-100772384D01*
X132108091Y-100573210D01*
X141060843Y-100573210D01*
X141120398Y-100632869D01*
X141465689Y-100776247D01*
X141551449Y-100776322D01*
X141563644Y-100788517D01*
X141802614Y-100948192D01*
X142084499Y-101004262D01*
X145483966Y-101004262D01*
X157742588Y-113262884D01*
X157742588Y-115553188D01*
X157798658Y-115835073D01*
X157958333Y-116074043D01*
X158753776Y-116869486D01*
X158686776Y-117030841D01*
X158686225Y-117662388D01*
X158927398Y-118246072D01*
X159298935Y-118618257D01*
X158928968Y-118987579D01*
X158686776Y-119570841D01*
X158686225Y-120202388D01*
X158927398Y-120786072D01*
X159298935Y-121158257D01*
X158928968Y-121527579D01*
X158686776Y-122110841D01*
X158686225Y-122742388D01*
X158927398Y-123326072D01*
X159298935Y-123698257D01*
X158928968Y-124067579D01*
X158686776Y-124650841D01*
X158686225Y-125282388D01*
X158927398Y-125866072D01*
X159298935Y-126238257D01*
X158928968Y-126607579D01*
X158686776Y-127190841D01*
X158686225Y-127822388D01*
X158927398Y-128406072D01*
X159223808Y-128703000D01*
X113063939Y-128703000D01*
X113359032Y-128408421D01*
X113601224Y-127825159D01*
X113601775Y-127193612D01*
X113360602Y-126609928D01*
X112989065Y-126237743D01*
X113359032Y-125868421D01*
X113601224Y-125285159D01*
X113601775Y-124653612D01*
X113360602Y-124069928D01*
X112989065Y-123697743D01*
X113359032Y-123328421D01*
X113601224Y-122745159D01*
X113601304Y-122652907D01*
X122354180Y-122652907D01*
X122354180Y-122711093D01*
X122467219Y-123279378D01*
X122789126Y-123761147D01*
X123270895Y-124083054D01*
X123839180Y-124196093D01*
X124407465Y-124083054D01*
X124889234Y-123761147D01*
X125109180Y-123431974D01*
X125329126Y-123761147D01*
X125810895Y-124083054D01*
X126379180Y-124196093D01*
X126947465Y-124083054D01*
X127429234Y-123761147D01*
X127649180Y-123431974D01*
X127869126Y-123761147D01*
X128350895Y-124083054D01*
X128919180Y-124196093D01*
X129487465Y-124083054D01*
X129969234Y-123761147D01*
X130189180Y-123431974D01*
X130409126Y-123761147D01*
X130890895Y-124083054D01*
X131459180Y-124196093D01*
X132027465Y-124083054D01*
X132509234Y-123761147D01*
X132729180Y-123431974D01*
X132949126Y-123761147D01*
X133430895Y-124083054D01*
X133999180Y-124196093D01*
X134567465Y-124083054D01*
X135049234Y-123761147D01*
X135371141Y-123279378D01*
X135484180Y-122711093D01*
X135484180Y-122652907D01*
X135371141Y-122084622D01*
X135049234Y-121602853D01*
X135048001Y-121602029D01*
X135084497Y-121595162D01*
X135300621Y-121456090D01*
X135445611Y-121243890D01*
X135496620Y-120992000D01*
X135496620Y-120131360D01*
X152932087Y-120131360D01*
X153045126Y-120699645D01*
X153367033Y-121181414D01*
X153671340Y-121384745D01*
X153606094Y-121411704D01*
X153187992Y-121829077D01*
X152961438Y-122374679D01*
X152960923Y-122965449D01*
X153186524Y-123511446D01*
X153603897Y-123929548D01*
X154149499Y-124156102D01*
X154740269Y-124156617D01*
X155286266Y-123931016D01*
X155704368Y-123513643D01*
X155930922Y-122968041D01*
X155931437Y-122377271D01*
X155705836Y-121831274D01*
X155288463Y-121413172D01*
X155220630Y-121385005D01*
X155525327Y-121181414D01*
X155847234Y-120699645D01*
X155960273Y-120131360D01*
X155847234Y-119563075D01*
X155525327Y-119081306D01*
X155043558Y-118759399D01*
X154475273Y-118646360D01*
X154417087Y-118646360D01*
X153848802Y-118759399D01*
X153367033Y-119081306D01*
X153045126Y-119563075D01*
X152932087Y-120131360D01*
X135496620Y-120131360D01*
X135496620Y-119292000D01*
X135452342Y-119056683D01*
X135313270Y-118840559D01*
X135101070Y-118695569D01*
X134849180Y-118644560D01*
X133149180Y-118644560D01*
X132913863Y-118688838D01*
X132697739Y-118827910D01*
X132552749Y-119040110D01*
X132539094Y-119107541D01*
X132509234Y-119062853D01*
X132027465Y-118740946D01*
X131459180Y-118627907D01*
X130890895Y-118740946D01*
X130409126Y-119062853D01*
X130189180Y-119392026D01*
X129969234Y-119062853D01*
X129487465Y-118740946D01*
X128919180Y-118627907D01*
X128350895Y-118740946D01*
X127869126Y-119062853D01*
X127649180Y-119392026D01*
X127429234Y-119062853D01*
X126947465Y-118740946D01*
X126379180Y-118627907D01*
X125810895Y-118740946D01*
X125329126Y-119062853D01*
X125101478Y-119403553D01*
X125034363Y-119260642D01*
X124606104Y-118870355D01*
X124196070Y-118700524D01*
X123966180Y-118821845D01*
X123966180Y-120015000D01*
X123986180Y-120015000D01*
X123986180Y-120269000D01*
X123966180Y-120269000D01*
X123966180Y-120289000D01*
X123712180Y-120289000D01*
X123712180Y-120269000D01*
X122518361Y-120269000D01*
X122397694Y-120498892D01*
X122643997Y-121023358D01*
X123072256Y-121413645D01*
X123072281Y-121413655D01*
X122789126Y-121602853D01*
X122467219Y-122084622D01*
X122354180Y-122652907D01*
X113601304Y-122652907D01*
X113601775Y-122113612D01*
X113360602Y-121529928D01*
X112989065Y-121157743D01*
X113359032Y-120788421D01*
X113601224Y-120205159D01*
X113601590Y-119785108D01*
X122397694Y-119785108D01*
X122518361Y-120015000D01*
X123712180Y-120015000D01*
X123712180Y-118821845D01*
X123482290Y-118700524D01*
X123072256Y-118870355D01*
X122643997Y-119260642D01*
X122397694Y-119785108D01*
X113601590Y-119785108D01*
X113601775Y-119573612D01*
X113360602Y-118989928D01*
X112989065Y-118617743D01*
X113359032Y-118248421D01*
X113601224Y-117665159D01*
X113601775Y-117033612D01*
X113360602Y-116449928D01*
X112989065Y-116077743D01*
X113359032Y-115708421D01*
X113601224Y-115125159D01*
X113601455Y-114860360D01*
X122122516Y-114860360D01*
X122222234Y-115361675D01*
X122506206Y-115786670D01*
X122931201Y-116070642D01*
X123432516Y-116170360D01*
X123483844Y-116170360D01*
X123985159Y-116070642D01*
X124410154Y-115786670D01*
X124458180Y-115714794D01*
X124506206Y-115786670D01*
X124931201Y-116070642D01*
X125432516Y-116170360D01*
X125483844Y-116170360D01*
X125985159Y-116070642D01*
X126410154Y-115786670D01*
X126694126Y-115361675D01*
X126793844Y-114860360D01*
X126694126Y-114359045D01*
X126410154Y-113934050D01*
X126292494Y-113855432D01*
X126587658Y-113523993D01*
X126726090Y-113189760D01*
X126602404Y-112987360D01*
X125585180Y-112987360D01*
X125585180Y-113007360D01*
X125331180Y-113007360D01*
X125331180Y-112987360D01*
X123585180Y-112987360D01*
X123585180Y-113007360D01*
X123331180Y-113007360D01*
X123331180Y-112987360D01*
X122313956Y-112987360D01*
X122190270Y-113189760D01*
X122328702Y-113523993D01*
X122623866Y-113855432D01*
X122506206Y-113934050D01*
X122222234Y-114359045D01*
X122122516Y-114860360D01*
X113601455Y-114860360D01*
X113601775Y-114493612D01*
X113360602Y-113909928D01*
X112914421Y-113462968D01*
X112331159Y-113220776D01*
X111699612Y-113220225D01*
X111115928Y-113461398D01*
X110668968Y-113907579D01*
X110426776Y-114490841D01*
X110426225Y-115122388D01*
X110667398Y-115706072D01*
X111038935Y-116078257D01*
X110668968Y-116447579D01*
X110426776Y-117030841D01*
X110426225Y-117662388D01*
X110667398Y-118246072D01*
X111038935Y-118618257D01*
X110668968Y-118987579D01*
X110426776Y-119570841D01*
X110426225Y-120202388D01*
X110667398Y-120786072D01*
X111038935Y-121158257D01*
X110668968Y-121527579D01*
X110426776Y-122110841D01*
X110426225Y-122742388D01*
X110667398Y-123326072D01*
X111038935Y-123698257D01*
X110668968Y-124067579D01*
X110426776Y-124650841D01*
X110426225Y-125282388D01*
X110667398Y-125866072D01*
X111038935Y-126238257D01*
X110668968Y-126607579D01*
X110426776Y-127190841D01*
X110426225Y-127822388D01*
X110667398Y-128406072D01*
X110963808Y-128703000D01*
X110311000Y-128703000D01*
X110311000Y-110042388D01*
X110426225Y-110042388D01*
X110667398Y-110626072D01*
X111113579Y-111073032D01*
X111696841Y-111315224D01*
X112328388Y-111315775D01*
X112912072Y-111074602D01*
X113359032Y-110628421D01*
X113601224Y-110045159D01*
X113601775Y-109413612D01*
X113360602Y-108829928D01*
X112947859Y-108416464D01*
X112977954Y-108331559D01*
X112039400Y-107393005D01*
X111100846Y-108331559D01*
X111118182Y-108380467D01*
X111115928Y-108381398D01*
X110668968Y-108827579D01*
X110426776Y-109410841D01*
X110426225Y-110042388D01*
X110311000Y-110042388D01*
X110311000Y-106960201D01*
X110440725Y-106960201D01*
X110465522Y-107591261D01*
X110659312Y-108059112D01*
X110921241Y-108151954D01*
X111859795Y-107213400D01*
X112219005Y-107213400D01*
X113157559Y-108151954D01*
X113419488Y-108059112D01*
X113638075Y-107466599D01*
X113613278Y-106835539D01*
X113419488Y-106367688D01*
X113157559Y-106274846D01*
X112219005Y-107213400D01*
X111859795Y-107213400D01*
X110921241Y-106274846D01*
X110659312Y-106367688D01*
X110440725Y-106960201D01*
X110311000Y-106960201D01*
X110311000Y-105791559D01*
X111100846Y-105791559D01*
X111154667Y-105943400D01*
X111100846Y-106095241D01*
X112039400Y-107033795D01*
X112977954Y-106095241D01*
X112924133Y-105943400D01*
X112977954Y-105791559D01*
X112039400Y-104853005D01*
X111100846Y-105791559D01*
X110311000Y-105791559D01*
X110311000Y-104420201D01*
X110440725Y-104420201D01*
X110465522Y-105051261D01*
X110659312Y-105519112D01*
X110921241Y-105611954D01*
X111859795Y-104673400D01*
X112219005Y-104673400D01*
X113157559Y-105611954D01*
X113419488Y-105519112D01*
X113638075Y-104926599D01*
X113613278Y-104295539D01*
X113419488Y-103827688D01*
X113157559Y-103734846D01*
X112219005Y-104673400D01*
X111859795Y-104673400D01*
X110921241Y-103734846D01*
X110659312Y-103827688D01*
X110440725Y-104420201D01*
X110311000Y-104420201D01*
X110311000Y-92262388D01*
X110426225Y-92262388D01*
X110667398Y-92846072D01*
X111064312Y-93243679D01*
X110694368Y-93612979D01*
X110452176Y-94196241D01*
X110451625Y-94827788D01*
X110692798Y-95411472D01*
X111064335Y-95783657D01*
X110694368Y-96152979D01*
X110452176Y-96736241D01*
X110451625Y-97367788D01*
X110692798Y-97951472D01*
X111064335Y-98323657D01*
X110694368Y-98692979D01*
X110452176Y-99276241D01*
X110451625Y-99907788D01*
X110692798Y-100491472D01*
X111077012Y-100876357D01*
X110719768Y-101232979D01*
X110477576Y-101816241D01*
X110477025Y-102447788D01*
X110718198Y-103031472D01*
X111137585Y-103451591D01*
X111100846Y-103555241D01*
X112039400Y-104493795D01*
X112977954Y-103555241D01*
X112952765Y-103484178D01*
X112962872Y-103480002D01*
X113409832Y-103033821D01*
X113652024Y-102450559D01*
X113652575Y-101819012D01*
X113411402Y-101235328D01*
X113027188Y-100850443D01*
X113384432Y-100493821D01*
X113626624Y-99910559D01*
X113627175Y-99279012D01*
X113386002Y-98695328D01*
X113014465Y-98323143D01*
X113384432Y-97953821D01*
X113626624Y-97370559D01*
X113627175Y-96739012D01*
X113386002Y-96155328D01*
X113014465Y-95783143D01*
X113384432Y-95413821D01*
X113626624Y-94830559D01*
X113627175Y-94199012D01*
X113386002Y-93615328D01*
X112989088Y-93217721D01*
X113359032Y-92848421D01*
X113601224Y-92265159D01*
X113601775Y-91633612D01*
X113360602Y-91049928D01*
X112914421Y-90602968D01*
X112331159Y-90360776D01*
X111699612Y-90360225D01*
X111115928Y-90601398D01*
X110668968Y-91047579D01*
X110426776Y-91630841D01*
X110426225Y-92262388D01*
X110311000Y-92262388D01*
X110311000Y-84737360D01*
X119420740Y-84737360D01*
X119420740Y-86437360D01*
X119465018Y-86672677D01*
X119604090Y-86888801D01*
X119816290Y-87033791D01*
X120068180Y-87084800D01*
X121768180Y-87084800D01*
X122003497Y-87040522D01*
X122219621Y-86901450D01*
X122364611Y-86689250D01*
X122378266Y-86621819D01*
X122408126Y-86666507D01*
X122889895Y-86988414D01*
X123458180Y-87101453D01*
X124026465Y-86988414D01*
X124508234Y-86666507D01*
X124728180Y-86337334D01*
X124948126Y-86666507D01*
X125429895Y-86988414D01*
X125998180Y-87101453D01*
X126566465Y-86988414D01*
X127048234Y-86666507D01*
X127268180Y-86337334D01*
X127488126Y-86666507D01*
X127969895Y-86988414D01*
X128538180Y-87101453D01*
X129106465Y-86988414D01*
X129588234Y-86666507D01*
X129808180Y-86337334D01*
X130028126Y-86666507D01*
X130509895Y-86988414D01*
X131078180Y-87101453D01*
X131646465Y-86988414D01*
X132128234Y-86666507D01*
X132348180Y-86337334D01*
X132568126Y-86666507D01*
X133049895Y-86988414D01*
X133618180Y-87101453D01*
X134186465Y-86988414D01*
X134668234Y-86666507D01*
X134888180Y-86337334D01*
X135108126Y-86666507D01*
X135589895Y-86988414D01*
X136158180Y-87101453D01*
X136726465Y-86988414D01*
X137208234Y-86666507D01*
X137428180Y-86337334D01*
X137648126Y-86666507D01*
X138129895Y-86988414D01*
X138698180Y-87101453D01*
X139266465Y-86988414D01*
X139748234Y-86666507D01*
X139968180Y-86337334D01*
X140188126Y-86666507D01*
X140669895Y-86988414D01*
X141238180Y-87101453D01*
X141806465Y-86988414D01*
X142288234Y-86666507D01*
X142515882Y-86325807D01*
X142582997Y-86468718D01*
X143011256Y-86859005D01*
X143421290Y-87028836D01*
X143651180Y-86907515D01*
X143651180Y-85714360D01*
X143631180Y-85714360D01*
X143631180Y-85460360D01*
X143651180Y-85460360D01*
X143651180Y-85440360D01*
X143905180Y-85440360D01*
X143905180Y-85460360D01*
X143925180Y-85460360D01*
X143925180Y-85714360D01*
X143905180Y-85714360D01*
X143905180Y-86907515D01*
X144135070Y-87028836D01*
X144545104Y-86859005D01*
X144973363Y-86468718D01*
X145040478Y-86325807D01*
X145268126Y-86666507D01*
X145749895Y-86988414D01*
X146318180Y-87101453D01*
X146886465Y-86988414D01*
X147368234Y-86666507D01*
X147588180Y-86337334D01*
X147808126Y-86666507D01*
X148289895Y-86988414D01*
X148858180Y-87101453D01*
X149426465Y-86988414D01*
X149908234Y-86666507D01*
X150128180Y-86337334D01*
X150348126Y-86666507D01*
X150829895Y-86988414D01*
X151398180Y-87101453D01*
X151966465Y-86988414D01*
X152448234Y-86666507D01*
X152770141Y-86184738D01*
X152883180Y-85616453D01*
X152883180Y-85558267D01*
X152770141Y-84989982D01*
X152448234Y-84508213D01*
X152165079Y-84319015D01*
X152165104Y-84319005D01*
X152593363Y-83928718D01*
X152839666Y-83404252D01*
X152718999Y-83174360D01*
X151525180Y-83174360D01*
X151525180Y-83194360D01*
X151271180Y-83194360D01*
X151271180Y-83174360D01*
X151251180Y-83174360D01*
X151251180Y-83118388D01*
X158686225Y-83118388D01*
X158927398Y-83702072D01*
X159298935Y-84074257D01*
X158928968Y-84443579D01*
X158686776Y-85026841D01*
X158686225Y-85658388D01*
X158927398Y-86242072D01*
X159298935Y-86614257D01*
X158928968Y-86983579D01*
X158686776Y-87566841D01*
X158686225Y-88198388D01*
X158927398Y-88782072D01*
X159365529Y-89220968D01*
X159335446Y-89305841D01*
X160274000Y-90244395D01*
X161212554Y-89305841D01*
X161182275Y-89220417D01*
X161619032Y-88784421D01*
X161861224Y-88201159D01*
X161861775Y-87569612D01*
X161620602Y-86985928D01*
X161249065Y-86613743D01*
X161619032Y-86244421D01*
X161861224Y-85661159D01*
X161861775Y-85029612D01*
X161620602Y-84445928D01*
X161249065Y-84073743D01*
X161619032Y-83704421D01*
X161861224Y-83121159D01*
X161861775Y-82489612D01*
X161620602Y-81905928D01*
X161174421Y-81458968D01*
X160591159Y-81216776D01*
X159959612Y-81216225D01*
X159375928Y-81457398D01*
X158928968Y-81903579D01*
X158686776Y-82486841D01*
X158686225Y-83118388D01*
X151251180Y-83118388D01*
X151251180Y-82920360D01*
X151271180Y-82920360D01*
X151271180Y-81727205D01*
X151525180Y-81727205D01*
X151525180Y-82920360D01*
X152718999Y-82920360D01*
X152839666Y-82690468D01*
X152593363Y-82166002D01*
X152165104Y-81775715D01*
X151755070Y-81605884D01*
X151525180Y-81727205D01*
X151271180Y-81727205D01*
X151041290Y-81605884D01*
X150631256Y-81775715D01*
X150202997Y-82166002D01*
X150135882Y-82308913D01*
X149908234Y-81968213D01*
X149426465Y-81646306D01*
X148858180Y-81533267D01*
X148289895Y-81646306D01*
X147808126Y-81968213D01*
X147580478Y-82308913D01*
X147513363Y-82166002D01*
X147085104Y-81775715D01*
X146675070Y-81605884D01*
X146445180Y-81727205D01*
X146445180Y-82920360D01*
X146465180Y-82920360D01*
X146465180Y-83174360D01*
X146445180Y-83174360D01*
X146445180Y-83194360D01*
X146191180Y-83194360D01*
X146191180Y-83174360D01*
X146171180Y-83174360D01*
X146171180Y-82920360D01*
X146191180Y-82920360D01*
X146191180Y-81727205D01*
X145961290Y-81605884D01*
X145551256Y-81775715D01*
X145122997Y-82166002D01*
X145055882Y-82308913D01*
X144828234Y-81968213D01*
X144346465Y-81646306D01*
X143778180Y-81533267D01*
X143209895Y-81646306D01*
X142728126Y-81968213D01*
X142508180Y-82297386D01*
X142288234Y-81968213D01*
X141806465Y-81646306D01*
X141238180Y-81533267D01*
X140669895Y-81646306D01*
X140188126Y-81968213D01*
X139968180Y-82297386D01*
X139748234Y-81968213D01*
X139266465Y-81646306D01*
X138698180Y-81533267D01*
X138129895Y-81646306D01*
X137648126Y-81968213D01*
X137428180Y-82297386D01*
X137208234Y-81968213D01*
X136726465Y-81646306D01*
X136158180Y-81533267D01*
X135589895Y-81646306D01*
X135108126Y-81968213D01*
X134888180Y-82297386D01*
X134668234Y-81968213D01*
X134186465Y-81646306D01*
X133618180Y-81533267D01*
X133049895Y-81646306D01*
X132568126Y-81968213D01*
X132340478Y-82308913D01*
X132273363Y-82166002D01*
X131845104Y-81775715D01*
X131435070Y-81605884D01*
X131205180Y-81727205D01*
X131205180Y-82920360D01*
X131225180Y-82920360D01*
X131225180Y-83174360D01*
X131205180Y-83174360D01*
X131205180Y-83194360D01*
X130951180Y-83194360D01*
X130951180Y-83174360D01*
X130931180Y-83174360D01*
X130931180Y-82920360D01*
X130951180Y-82920360D01*
X130951180Y-81727205D01*
X130721290Y-81605884D01*
X130311256Y-81775715D01*
X129882997Y-82166002D01*
X129815882Y-82308913D01*
X129588234Y-81968213D01*
X129106465Y-81646306D01*
X128538180Y-81533267D01*
X127969895Y-81646306D01*
X127488126Y-81968213D01*
X127268180Y-82297386D01*
X127048234Y-81968213D01*
X126566465Y-81646306D01*
X125998180Y-81533267D01*
X125429895Y-81646306D01*
X124948126Y-81968213D01*
X124728180Y-82297386D01*
X124508234Y-81968213D01*
X124026465Y-81646306D01*
X123458180Y-81533267D01*
X122889895Y-81646306D01*
X122408126Y-81968213D01*
X122188180Y-82297386D01*
X121968234Y-81968213D01*
X121486465Y-81646306D01*
X120918180Y-81533267D01*
X120349895Y-81646306D01*
X119868126Y-81968213D01*
X119546219Y-82449982D01*
X119433180Y-83018267D01*
X119433180Y-83076453D01*
X119546219Y-83644738D01*
X119868126Y-84126507D01*
X119869359Y-84127331D01*
X119832863Y-84134198D01*
X119616739Y-84273270D01*
X119471749Y-84485470D01*
X119420740Y-84737360D01*
X110311000Y-84737360D01*
X110311000Y-80847000D01*
X162104000Y-80847000D01*
X162104000Y-128703000D01*
X162104000Y-128703000D01*
G37*
X162104000Y-128703000D02*
X161323939Y-128703000D01*
X161619032Y-128408421D01*
X161861224Y-127825159D01*
X161861775Y-127193612D01*
X161620602Y-126609928D01*
X161249065Y-126237743D01*
X161619032Y-125868421D01*
X161861224Y-125285159D01*
X161861775Y-124653612D01*
X161620602Y-124069928D01*
X161249065Y-123697743D01*
X161619032Y-123328421D01*
X161861224Y-122745159D01*
X161861775Y-122113612D01*
X161620602Y-121529928D01*
X161249065Y-121157743D01*
X161619032Y-120788421D01*
X161861224Y-120205159D01*
X161861775Y-119573612D01*
X161620602Y-118989928D01*
X161249065Y-118617743D01*
X161619032Y-118248421D01*
X161861224Y-117665159D01*
X161861775Y-117033612D01*
X161620602Y-116449928D01*
X161249065Y-116077743D01*
X161619032Y-115708421D01*
X161861224Y-115125159D01*
X161861775Y-114493612D01*
X161620602Y-113909928D01*
X161249065Y-113537743D01*
X161619032Y-113168421D01*
X161861224Y-112585159D01*
X161861775Y-111953612D01*
X161620602Y-111369928D01*
X161249065Y-110997743D01*
X161619032Y-110628421D01*
X161861224Y-110045159D01*
X161861775Y-109413612D01*
X161620602Y-108829928D01*
X161174421Y-108382968D01*
X160591159Y-108140776D01*
X159959612Y-108140225D01*
X159375928Y-108381398D01*
X158928968Y-108827579D01*
X158865362Y-108980760D01*
X157507456Y-108980760D01*
X150356780Y-101830084D01*
X150356780Y-100657964D01*
X150416439Y-100598409D01*
X150559817Y-100253118D01*
X150560143Y-99879242D01*
X150417368Y-99533701D01*
X150153229Y-99269101D01*
X149807938Y-99125723D01*
X149434062Y-99125397D01*
X149122192Y-99254259D01*
X149010229Y-99142101D01*
X148664938Y-98998723D01*
X148291062Y-98998397D01*
X147945521Y-99141172D01*
X147680921Y-99405311D01*
X147537543Y-99750602D01*
X147537217Y-100124478D01*
X147669766Y-100445270D01*
X146387093Y-99162597D01*
X146148123Y-99002922D01*
X145866238Y-98946852D01*
X144104841Y-98946852D01*
X144045286Y-98887193D01*
X143762959Y-98769960D01*
X158856283Y-98769960D01*
X158927398Y-98942072D01*
X159298935Y-99314257D01*
X158928968Y-99683579D01*
X158686776Y-100266841D01*
X158686225Y-100898388D01*
X158927398Y-101482072D01*
X159298935Y-101854257D01*
X158928968Y-102223579D01*
X158686776Y-102806841D01*
X158686225Y-103438388D01*
X158927398Y-104022072D01*
X159298935Y-104394257D01*
X158928968Y-104763579D01*
X158686776Y-105346841D01*
X158686225Y-105978388D01*
X158927398Y-106562072D01*
X159373579Y-107009032D01*
X159956841Y-107251224D01*
X160588388Y-107251775D01*
X161172072Y-107010602D01*
X161619032Y-106564421D01*
X161861224Y-105981159D01*
X161861775Y-105349612D01*
X161620602Y-104765928D01*
X161249065Y-104393743D01*
X161619032Y-104024421D01*
X161861224Y-103441159D01*
X161861775Y-102809612D01*
X161620602Y-102225928D01*
X161249065Y-101853743D01*
X161619032Y-101484421D01*
X161861224Y-100901159D01*
X161861775Y-100269612D01*
X161620602Y-99685928D01*
X161249065Y-99313743D01*
X161619032Y-98944421D01*
X161861224Y-98361159D01*
X161861775Y-97729612D01*
X161620602Y-97145928D01*
X161261743Y-96786443D01*
X161644432Y-96404421D01*
X161886624Y-95821159D01*
X161887175Y-95189612D01*
X161646002Y-94605928D01*
X161274465Y-94233743D01*
X161644432Y-93864421D01*
X161886624Y-93281159D01*
X161887175Y-92649612D01*
X161646002Y-92065928D01*
X161199821Y-91618968D01*
X161187188Y-91613722D01*
X161212554Y-91542159D01*
X160274000Y-90603605D01*
X159335446Y-91542159D01*
X159372364Y-91646312D01*
X158954368Y-92063579D01*
X158712176Y-92646841D01*
X158711625Y-93278388D01*
X158952798Y-93862072D01*
X159324335Y-94234257D01*
X158954368Y-94603579D01*
X158712176Y-95186841D01*
X158711625Y-95818388D01*
X158952798Y-96402072D01*
X159311657Y-96761557D01*
X158928968Y-97143579D01*
X158865362Y-97296760D01*
X150048505Y-97296760D01*
X150161217Y-97025320D01*
X150161543Y-96651444D01*
X150018768Y-96305903D01*
X149754629Y-96041303D01*
X149409338Y-95897925D01*
X149323578Y-95897850D01*
X148891920Y-95466192D01*
X148891920Y-93266500D01*
X148835850Y-92984615D01*
X148676175Y-92745645D01*
X147131069Y-91200539D01*
X147131143Y-91116242D01*
X146988368Y-90770701D01*
X146724229Y-90506101D01*
X146378938Y-90362723D01*
X146005062Y-90362397D01*
X145659521Y-90505172D01*
X145394921Y-90769311D01*
X145251543Y-91114602D01*
X145251217Y-91488478D01*
X145393992Y-91834019D01*
X145658131Y-92098619D01*
X145789365Y-92153112D01*
X145648921Y-92293311D01*
X145505543Y-92638602D01*
X145505217Y-93012478D01*
X145647992Y-93358019D01*
X145912131Y-93622619D01*
X146257422Y-93765997D01*
X146343182Y-93766072D01*
X146724580Y-94147470D01*
X146724580Y-96004878D01*
X146780650Y-96286763D01*
X146940325Y-96525733D01*
X147303829Y-96889237D01*
X147303755Y-96973534D01*
X147437310Y-97296760D01*
X133661188Y-97296760D01*
X133644245Y-97279787D01*
X133298954Y-97136409D01*
X132925078Y-97136083D01*
X132579537Y-97278858D01*
X132531359Y-97326952D01*
X132490946Y-97326952D01*
X132209061Y-97383022D01*
X131970091Y-97542697D01*
X128524187Y-100988601D01*
X128364512Y-101227571D01*
X128308442Y-101509456D01*
X128308442Y-104968388D01*
X126731233Y-106545597D01*
X126694126Y-106359045D01*
X126410154Y-105934050D01*
X126194780Y-105790142D01*
X126194780Y-102660473D01*
X129017714Y-99837539D01*
X129102011Y-99837613D01*
X129447552Y-99694838D01*
X129712152Y-99430699D01*
X129855530Y-99085408D01*
X129855856Y-98711532D01*
X129762546Y-98485704D01*
X132395040Y-95853210D01*
X132577131Y-96035619D01*
X132922422Y-96178997D01*
X133296298Y-96179323D01*
X133641839Y-96036548D01*
X133702533Y-95975960D01*
X141764730Y-95975960D01*
X141951064Y-96162619D01*
X142296355Y-96305997D01*
X142670231Y-96306323D01*
X143015772Y-96163548D01*
X143280372Y-95899409D01*
X143423750Y-95554118D01*
X143424076Y-95180242D01*
X143281301Y-94834701D01*
X143017162Y-94570101D01*
X142671871Y-94426723D01*
X142297995Y-94426397D01*
X142113183Y-94502760D01*
X134033087Y-94502760D01*
X134033439Y-94502409D01*
X134176817Y-94157118D01*
X134177143Y-93783242D01*
X134034368Y-93437701D01*
X133973780Y-93377007D01*
X133973780Y-90644641D01*
X134215229Y-90403192D01*
X134351574Y-90539775D01*
X134696865Y-90683153D01*
X135070741Y-90683479D01*
X135416282Y-90540704D01*
X135680882Y-90276565D01*
X135722924Y-90175317D01*
X155103169Y-90175317D01*
X155302972Y-90375469D01*
X155648263Y-90518847D01*
X156022139Y-90519173D01*
X156367680Y-90376398D01*
X156573635Y-90170801D01*
X158675325Y-90170801D01*
X158700122Y-90801861D01*
X158893912Y-91269712D01*
X159155841Y-91362554D01*
X160094395Y-90424000D01*
X160453605Y-90424000D01*
X161392159Y-91362554D01*
X161654088Y-91269712D01*
X161872675Y-90677199D01*
X161847878Y-90046139D01*
X161654088Y-89578288D01*
X161392159Y-89485446D01*
X160453605Y-90424000D01*
X160094395Y-90424000D01*
X159155841Y-89485446D01*
X158893912Y-89578288D01*
X158675325Y-90170801D01*
X156573635Y-90170801D01*
X156632280Y-90112259D01*
X156775658Y-89766968D01*
X156775837Y-89561706D01*
X156948502Y-89389342D01*
X157091880Y-89044051D01*
X157092206Y-88670175D01*
X156949431Y-88324634D01*
X156685292Y-88060034D01*
X156340001Y-87916656D01*
X155966125Y-87916330D01*
X155620584Y-88059105D01*
X155559890Y-88119693D01*
X134720418Y-88119693D01*
X134438533Y-88175763D01*
X134199563Y-88335438D01*
X132716325Y-89818676D01*
X132556650Y-90057646D01*
X132500580Y-90339531D01*
X132500580Y-93376756D01*
X132440921Y-93436311D01*
X132297543Y-93781602D01*
X132297468Y-93867362D01*
X128395038Y-97769792D01*
X128235363Y-98008762D01*
X128179293Y-98290647D01*
X128179293Y-98305046D01*
X128119634Y-98364601D01*
X127976256Y-98709892D01*
X127976181Y-98795652D01*
X124937325Y-101834508D01*
X124777650Y-102073478D01*
X124721580Y-102355363D01*
X124721580Y-105790142D01*
X124659948Y-105831323D01*
X124597270Y-105733919D01*
X124385070Y-105588929D01*
X124133180Y-105537920D01*
X122783180Y-105537920D01*
X122547863Y-105582198D01*
X122331739Y-105721270D01*
X122186749Y-105933470D01*
X122135740Y-106185360D01*
X122135740Y-106496210D01*
X121273780Y-105634250D01*
X121273780Y-91894964D01*
X121333439Y-91835409D01*
X121476817Y-91490118D01*
X121476892Y-91404358D01*
X123194896Y-89686354D01*
X128498327Y-89686354D01*
X128557882Y-89746013D01*
X128903173Y-89889391D01*
X129277049Y-89889717D01*
X129622590Y-89746942D01*
X129887190Y-89482803D01*
X130030568Y-89137512D01*
X130030894Y-88763636D01*
X129888119Y-88418095D01*
X129623980Y-88153495D01*
X129278689Y-88010117D01*
X128904813Y-88009791D01*
X128559272Y-88152566D01*
X128498578Y-88213154D01*
X122889786Y-88213154D01*
X122607901Y-88269224D01*
X122368931Y-88428899D01*
X120435359Y-90362471D01*
X120351062Y-90362397D01*
X120005521Y-90505172D01*
X119740921Y-90769311D01*
X119597543Y-91114602D01*
X119597217Y-91488478D01*
X119739992Y-91834019D01*
X119800580Y-91894713D01*
X119800580Y-105939360D01*
X119856650Y-106221245D01*
X120016325Y-106460215D01*
X122171286Y-108615176D01*
X122122516Y-108860360D01*
X122222234Y-109361675D01*
X122506206Y-109786670D01*
X122616491Y-109860360D01*
X122506206Y-109934050D01*
X122222234Y-110359045D01*
X122122516Y-110860360D01*
X122222234Y-111361675D01*
X122506206Y-111786670D01*
X122623866Y-111865288D01*
X122328702Y-112196727D01*
X122190270Y-112530960D01*
X122313956Y-112733360D01*
X123331180Y-112733360D01*
X123331180Y-112713360D01*
X123585180Y-112713360D01*
X123585180Y-112733360D01*
X125331180Y-112733360D01*
X125331180Y-112713360D01*
X125585180Y-112713360D01*
X125585180Y-112733360D01*
X126602404Y-112733360D01*
X126726090Y-112530960D01*
X126587658Y-112196727D01*
X126292494Y-111865288D01*
X126410154Y-111786670D01*
X126694126Y-111361675D01*
X126793844Y-110860360D01*
X126694126Y-110359045D01*
X126410154Y-109934050D01*
X126299869Y-109860360D01*
X126410154Y-109786670D01*
X126694126Y-109361675D01*
X126793844Y-108860360D01*
X126745074Y-108615176D01*
X129565897Y-105794353D01*
X129725572Y-105555383D01*
X129781642Y-105273498D01*
X129781642Y-101814566D01*
X130628405Y-100967803D01*
X130696078Y-101035594D01*
X131041369Y-101178972D01*
X131415245Y-101179298D01*
X131760786Y-101036523D01*
X132025386Y-100772384D01*
X132108091Y-100573210D01*
X141060843Y-100573210D01*
X141120398Y-100632869D01*
X141465689Y-100776247D01*
X141551449Y-100776322D01*
X141563644Y-100788517D01*
X141802614Y-100948192D01*
X142084499Y-101004262D01*
X145483966Y-101004262D01*
X157742588Y-113262884D01*
X157742588Y-115553188D01*
X157798658Y-115835073D01*
X157958333Y-116074043D01*
X158753776Y-116869486D01*
X158686776Y-117030841D01*
X158686225Y-117662388D01*
X158927398Y-118246072D01*
X159298935Y-118618257D01*
X158928968Y-118987579D01*
X158686776Y-119570841D01*
X158686225Y-120202388D01*
X158927398Y-120786072D01*
X159298935Y-121158257D01*
X158928968Y-121527579D01*
X158686776Y-122110841D01*
X158686225Y-122742388D01*
X158927398Y-123326072D01*
X159298935Y-123698257D01*
X158928968Y-124067579D01*
X158686776Y-124650841D01*
X158686225Y-125282388D01*
X158927398Y-125866072D01*
X159298935Y-126238257D01*
X158928968Y-126607579D01*
X158686776Y-127190841D01*
X158686225Y-127822388D01*
X158927398Y-128406072D01*
X159223808Y-128703000D01*
X113063939Y-128703000D01*
X113359032Y-128408421D01*
X113601224Y-127825159D01*
X113601775Y-127193612D01*
X113360602Y-126609928D01*
X112989065Y-126237743D01*
X113359032Y-125868421D01*
X113601224Y-125285159D01*
X113601775Y-124653612D01*
X113360602Y-124069928D01*
X112989065Y-123697743D01*
X113359032Y-123328421D01*
X113601224Y-122745159D01*
X113601304Y-122652907D01*
X122354180Y-122652907D01*
X122354180Y-122711093D01*
X122467219Y-123279378D01*
X122789126Y-123761147D01*
X123270895Y-124083054D01*
X123839180Y-124196093D01*
X124407465Y-124083054D01*
X124889234Y-123761147D01*
X125109180Y-123431974D01*
X125329126Y-123761147D01*
X125810895Y-124083054D01*
X126379180Y-124196093D01*
X126947465Y-124083054D01*
X127429234Y-123761147D01*
X127649180Y-123431974D01*
X127869126Y-123761147D01*
X128350895Y-124083054D01*
X128919180Y-124196093D01*
X129487465Y-124083054D01*
X129969234Y-123761147D01*
X130189180Y-123431974D01*
X130409126Y-123761147D01*
X130890895Y-124083054D01*
X131459180Y-124196093D01*
X132027465Y-124083054D01*
X132509234Y-123761147D01*
X132729180Y-123431974D01*
X132949126Y-123761147D01*
X133430895Y-124083054D01*
X133999180Y-124196093D01*
X134567465Y-124083054D01*
X135049234Y-123761147D01*
X135371141Y-123279378D01*
X135484180Y-122711093D01*
X135484180Y-122652907D01*
X135371141Y-122084622D01*
X135049234Y-121602853D01*
X135048001Y-121602029D01*
X135084497Y-121595162D01*
X135300621Y-121456090D01*
X135445611Y-121243890D01*
X135496620Y-120992000D01*
X135496620Y-120131360D01*
X152932087Y-120131360D01*
X153045126Y-120699645D01*
X153367033Y-121181414D01*
X153671340Y-121384745D01*
X153606094Y-121411704D01*
X153187992Y-121829077D01*
X152961438Y-122374679D01*
X152960923Y-122965449D01*
X153186524Y-123511446D01*
X153603897Y-123929548D01*
X154149499Y-124156102D01*
X154740269Y-124156617D01*
X155286266Y-123931016D01*
X155704368Y-123513643D01*
X155930922Y-122968041D01*
X155931437Y-122377271D01*
X155705836Y-121831274D01*
X155288463Y-121413172D01*
X155220630Y-121385005D01*
X155525327Y-121181414D01*
X155847234Y-120699645D01*
X155960273Y-120131360D01*
X155847234Y-119563075D01*
X155525327Y-119081306D01*
X155043558Y-118759399D01*
X154475273Y-118646360D01*
X154417087Y-118646360D01*
X153848802Y-118759399D01*
X153367033Y-119081306D01*
X153045126Y-119563075D01*
X152932087Y-120131360D01*
X135496620Y-120131360D01*
X135496620Y-119292000D01*
X135452342Y-119056683D01*
X135313270Y-118840559D01*
X135101070Y-118695569D01*
X134849180Y-118644560D01*
X133149180Y-118644560D01*
X132913863Y-118688838D01*
X132697739Y-118827910D01*
X132552749Y-119040110D01*
X132539094Y-119107541D01*
X132509234Y-119062853D01*
X132027465Y-118740946D01*
X131459180Y-118627907D01*
X130890895Y-118740946D01*
X130409126Y-119062853D01*
X130189180Y-119392026D01*
X129969234Y-119062853D01*
X129487465Y-118740946D01*
X128919180Y-118627907D01*
X128350895Y-118740946D01*
X127869126Y-119062853D01*
X127649180Y-119392026D01*
X127429234Y-119062853D01*
X126947465Y-118740946D01*
X126379180Y-118627907D01*
X125810895Y-118740946D01*
X125329126Y-119062853D01*
X125101478Y-119403553D01*
X125034363Y-119260642D01*
X124606104Y-118870355D01*
X124196070Y-118700524D01*
X123966180Y-118821845D01*
X123966180Y-120015000D01*
X123986180Y-120015000D01*
X123986180Y-120269000D01*
X123966180Y-120269000D01*
X123966180Y-120289000D01*
X123712180Y-120289000D01*
X123712180Y-120269000D01*
X122518361Y-120269000D01*
X122397694Y-120498892D01*
X122643997Y-121023358D01*
X123072256Y-121413645D01*
X123072281Y-121413655D01*
X122789126Y-121602853D01*
X122467219Y-122084622D01*
X122354180Y-122652907D01*
X113601304Y-122652907D01*
X113601775Y-122113612D01*
X113360602Y-121529928D01*
X112989065Y-121157743D01*
X113359032Y-120788421D01*
X113601224Y-120205159D01*
X113601590Y-119785108D01*
X122397694Y-119785108D01*
X122518361Y-120015000D01*
X123712180Y-120015000D01*
X123712180Y-118821845D01*
X123482290Y-118700524D01*
X123072256Y-118870355D01*
X122643997Y-119260642D01*
X122397694Y-119785108D01*
X113601590Y-119785108D01*
X113601775Y-119573612D01*
X113360602Y-118989928D01*
X112989065Y-118617743D01*
X113359032Y-118248421D01*
X113601224Y-117665159D01*
X113601775Y-117033612D01*
X113360602Y-116449928D01*
X112989065Y-116077743D01*
X113359032Y-115708421D01*
X113601224Y-115125159D01*
X113601455Y-114860360D01*
X122122516Y-114860360D01*
X122222234Y-115361675D01*
X122506206Y-115786670D01*
X122931201Y-116070642D01*
X123432516Y-116170360D01*
X123483844Y-116170360D01*
X123985159Y-116070642D01*
X124410154Y-115786670D01*
X124458180Y-115714794D01*
X124506206Y-115786670D01*
X124931201Y-116070642D01*
X125432516Y-116170360D01*
X125483844Y-116170360D01*
X125985159Y-116070642D01*
X126410154Y-115786670D01*
X126694126Y-115361675D01*
X126793844Y-114860360D01*
X126694126Y-114359045D01*
X126410154Y-113934050D01*
X126292494Y-113855432D01*
X126587658Y-113523993D01*
X126726090Y-113189760D01*
X126602404Y-112987360D01*
X125585180Y-112987360D01*
X125585180Y-113007360D01*
X125331180Y-113007360D01*
X125331180Y-112987360D01*
X123585180Y-112987360D01*
X123585180Y-113007360D01*
X123331180Y-113007360D01*
X123331180Y-112987360D01*
X122313956Y-112987360D01*
X122190270Y-113189760D01*
X122328702Y-113523993D01*
X122623866Y-113855432D01*
X122506206Y-113934050D01*
X122222234Y-114359045D01*
X122122516Y-114860360D01*
X113601455Y-114860360D01*
X113601775Y-114493612D01*
X113360602Y-113909928D01*
X112914421Y-113462968D01*
X112331159Y-113220776D01*
X111699612Y-113220225D01*
X111115928Y-113461398D01*
X110668968Y-113907579D01*
X110426776Y-114490841D01*
X110426225Y-115122388D01*
X110667398Y-115706072D01*
X111038935Y-116078257D01*
X110668968Y-116447579D01*
X110426776Y-117030841D01*
X110426225Y-117662388D01*
X110667398Y-118246072D01*
X111038935Y-118618257D01*
X110668968Y-118987579D01*
X110426776Y-119570841D01*
X110426225Y-120202388D01*
X110667398Y-120786072D01*
X111038935Y-121158257D01*
X110668968Y-121527579D01*
X110426776Y-122110841D01*
X110426225Y-122742388D01*
X110667398Y-123326072D01*
X111038935Y-123698257D01*
X110668968Y-124067579D01*
X110426776Y-124650841D01*
X110426225Y-125282388D01*
X110667398Y-125866072D01*
X111038935Y-126238257D01*
X110668968Y-126607579D01*
X110426776Y-127190841D01*
X110426225Y-127822388D01*
X110667398Y-128406072D01*
X110963808Y-128703000D01*
X110311000Y-128703000D01*
X110311000Y-110042388D01*
X110426225Y-110042388D01*
X110667398Y-110626072D01*
X111113579Y-111073032D01*
X111696841Y-111315224D01*
X112328388Y-111315775D01*
X112912072Y-111074602D01*
X113359032Y-110628421D01*
X113601224Y-110045159D01*
X113601775Y-109413612D01*
X113360602Y-108829928D01*
X112947859Y-108416464D01*
X112977954Y-108331559D01*
X112039400Y-107393005D01*
X111100846Y-108331559D01*
X111118182Y-108380467D01*
X111115928Y-108381398D01*
X110668968Y-108827579D01*
X110426776Y-109410841D01*
X110426225Y-110042388D01*
X110311000Y-110042388D01*
X110311000Y-106960201D01*
X110440725Y-106960201D01*
X110465522Y-107591261D01*
X110659312Y-108059112D01*
X110921241Y-108151954D01*
X111859795Y-107213400D01*
X112219005Y-107213400D01*
X113157559Y-108151954D01*
X113419488Y-108059112D01*
X113638075Y-107466599D01*
X113613278Y-106835539D01*
X113419488Y-106367688D01*
X113157559Y-106274846D01*
X112219005Y-107213400D01*
X111859795Y-107213400D01*
X110921241Y-106274846D01*
X110659312Y-106367688D01*
X110440725Y-106960201D01*
X110311000Y-106960201D01*
X110311000Y-105791559D01*
X111100846Y-105791559D01*
X111154667Y-105943400D01*
X111100846Y-106095241D01*
X112039400Y-107033795D01*
X112977954Y-106095241D01*
X112924133Y-105943400D01*
X112977954Y-105791559D01*
X112039400Y-104853005D01*
X111100846Y-105791559D01*
X110311000Y-105791559D01*
X110311000Y-104420201D01*
X110440725Y-104420201D01*
X110465522Y-105051261D01*
X110659312Y-105519112D01*
X110921241Y-105611954D01*
X111859795Y-104673400D01*
X112219005Y-104673400D01*
X113157559Y-105611954D01*
X113419488Y-105519112D01*
X113638075Y-104926599D01*
X113613278Y-104295539D01*
X113419488Y-103827688D01*
X113157559Y-103734846D01*
X112219005Y-104673400D01*
X111859795Y-104673400D01*
X110921241Y-103734846D01*
X110659312Y-103827688D01*
X110440725Y-104420201D01*
X110311000Y-104420201D01*
X110311000Y-92262388D01*
X110426225Y-92262388D01*
X110667398Y-92846072D01*
X111064312Y-93243679D01*
X110694368Y-93612979D01*
X110452176Y-94196241D01*
X110451625Y-94827788D01*
X110692798Y-95411472D01*
X111064335Y-95783657D01*
X110694368Y-96152979D01*
X110452176Y-96736241D01*
X110451625Y-97367788D01*
X110692798Y-97951472D01*
X111064335Y-98323657D01*
X110694368Y-98692979D01*
X110452176Y-99276241D01*
X110451625Y-99907788D01*
X110692798Y-100491472D01*
X111077012Y-100876357D01*
X110719768Y-101232979D01*
X110477576Y-101816241D01*
X110477025Y-102447788D01*
X110718198Y-103031472D01*
X111137585Y-103451591D01*
X111100846Y-103555241D01*
X112039400Y-104493795D01*
X112977954Y-103555241D01*
X112952765Y-103484178D01*
X112962872Y-103480002D01*
X113409832Y-103033821D01*
X113652024Y-102450559D01*
X113652575Y-101819012D01*
X113411402Y-101235328D01*
X113027188Y-100850443D01*
X113384432Y-100493821D01*
X113626624Y-99910559D01*
X113627175Y-99279012D01*
X113386002Y-98695328D01*
X113014465Y-98323143D01*
X113384432Y-97953821D01*
X113626624Y-97370559D01*
X113627175Y-96739012D01*
X113386002Y-96155328D01*
X113014465Y-95783143D01*
X113384432Y-95413821D01*
X113626624Y-94830559D01*
X113627175Y-94199012D01*
X113386002Y-93615328D01*
X112989088Y-93217721D01*
X113359032Y-92848421D01*
X113601224Y-92265159D01*
X113601775Y-91633612D01*
X113360602Y-91049928D01*
X112914421Y-90602968D01*
X112331159Y-90360776D01*
X111699612Y-90360225D01*
X111115928Y-90601398D01*
X110668968Y-91047579D01*
X110426776Y-91630841D01*
X110426225Y-92262388D01*
X110311000Y-92262388D01*
X110311000Y-84737360D01*
X119420740Y-84737360D01*
X119420740Y-86437360D01*
X119465018Y-86672677D01*
X119604090Y-86888801D01*
X119816290Y-87033791D01*
X120068180Y-87084800D01*
X121768180Y-87084800D01*
X122003497Y-87040522D01*
X122219621Y-86901450D01*
X122364611Y-86689250D01*
X122378266Y-86621819D01*
X122408126Y-86666507D01*
X122889895Y-86988414D01*
X123458180Y-87101453D01*
X124026465Y-86988414D01*
X124508234Y-86666507D01*
X124728180Y-86337334D01*
X124948126Y-86666507D01*
X125429895Y-86988414D01*
X125998180Y-87101453D01*
X126566465Y-86988414D01*
X127048234Y-86666507D01*
X127268180Y-86337334D01*
X127488126Y-86666507D01*
X127969895Y-86988414D01*
X128538180Y-87101453D01*
X129106465Y-86988414D01*
X129588234Y-86666507D01*
X129808180Y-86337334D01*
X130028126Y-86666507D01*
X130509895Y-86988414D01*
X131078180Y-87101453D01*
X131646465Y-86988414D01*
X132128234Y-86666507D01*
X132348180Y-86337334D01*
X132568126Y-86666507D01*
X133049895Y-86988414D01*
X133618180Y-87101453D01*
X134186465Y-86988414D01*
X134668234Y-86666507D01*
X134888180Y-86337334D01*
X135108126Y-86666507D01*
X135589895Y-86988414D01*
X136158180Y-87101453D01*
X136726465Y-86988414D01*
X137208234Y-86666507D01*
X137428180Y-86337334D01*
X137648126Y-86666507D01*
X138129895Y-86988414D01*
X138698180Y-87101453D01*
X139266465Y-86988414D01*
X139748234Y-86666507D01*
X139968180Y-86337334D01*
X140188126Y-86666507D01*
X140669895Y-86988414D01*
X141238180Y-87101453D01*
X141806465Y-86988414D01*
X142288234Y-86666507D01*
X142515882Y-86325807D01*
X142582997Y-86468718D01*
X143011256Y-86859005D01*
X143421290Y-87028836D01*
X143651180Y-86907515D01*
X143651180Y-85714360D01*
X143631180Y-85714360D01*
X143631180Y-85460360D01*
X143651180Y-85460360D01*
X143651180Y-85440360D01*
X143905180Y-85440360D01*
X143905180Y-85460360D01*
X143925180Y-85460360D01*
X143925180Y-85714360D01*
X143905180Y-85714360D01*
X143905180Y-86907515D01*
X144135070Y-87028836D01*
X144545104Y-86859005D01*
X144973363Y-86468718D01*
X145040478Y-86325807D01*
X145268126Y-86666507D01*
X145749895Y-86988414D01*
X146318180Y-87101453D01*
X146886465Y-86988414D01*
X147368234Y-86666507D01*
X147588180Y-86337334D01*
X147808126Y-86666507D01*
X148289895Y-86988414D01*
X148858180Y-87101453D01*
X149426465Y-86988414D01*
X149908234Y-86666507D01*
X150128180Y-86337334D01*
X150348126Y-86666507D01*
X150829895Y-86988414D01*
X151398180Y-87101453D01*
X151966465Y-86988414D01*
X152448234Y-86666507D01*
X152770141Y-86184738D01*
X152883180Y-85616453D01*
X152883180Y-85558267D01*
X152770141Y-84989982D01*
X152448234Y-84508213D01*
X152165079Y-84319015D01*
X152165104Y-84319005D01*
X152593363Y-83928718D01*
X152839666Y-83404252D01*
X152718999Y-83174360D01*
X151525180Y-83174360D01*
X151525180Y-83194360D01*
X151271180Y-83194360D01*
X151271180Y-83174360D01*
X151251180Y-83174360D01*
X151251180Y-83118388D01*
X158686225Y-83118388D01*
X158927398Y-83702072D01*
X159298935Y-84074257D01*
X158928968Y-84443579D01*
X158686776Y-85026841D01*
X158686225Y-85658388D01*
X158927398Y-86242072D01*
X159298935Y-86614257D01*
X158928968Y-86983579D01*
X158686776Y-87566841D01*
X158686225Y-88198388D01*
X158927398Y-88782072D01*
X159365529Y-89220968D01*
X159335446Y-89305841D01*
X160274000Y-90244395D01*
X161212554Y-89305841D01*
X161182275Y-89220417D01*
X161619032Y-88784421D01*
X161861224Y-88201159D01*
X161861775Y-87569612D01*
X161620602Y-86985928D01*
X161249065Y-86613743D01*
X161619032Y-86244421D01*
X161861224Y-85661159D01*
X161861775Y-85029612D01*
X161620602Y-84445928D01*
X161249065Y-84073743D01*
X161619032Y-83704421D01*
X161861224Y-83121159D01*
X161861775Y-82489612D01*
X161620602Y-81905928D01*
X161174421Y-81458968D01*
X160591159Y-81216776D01*
X159959612Y-81216225D01*
X159375928Y-81457398D01*
X158928968Y-81903579D01*
X158686776Y-82486841D01*
X158686225Y-83118388D01*
X151251180Y-83118388D01*
X151251180Y-82920360D01*
X151271180Y-82920360D01*
X151271180Y-81727205D01*
X151525180Y-81727205D01*
X151525180Y-82920360D01*
X152718999Y-82920360D01*
X152839666Y-82690468D01*
X152593363Y-82166002D01*
X152165104Y-81775715D01*
X151755070Y-81605884D01*
X151525180Y-81727205D01*
X151271180Y-81727205D01*
X151041290Y-81605884D01*
X150631256Y-81775715D01*
X150202997Y-82166002D01*
X150135882Y-82308913D01*
X149908234Y-81968213D01*
X149426465Y-81646306D01*
X148858180Y-81533267D01*
X148289895Y-81646306D01*
X147808126Y-81968213D01*
X147580478Y-82308913D01*
X147513363Y-82166002D01*
X147085104Y-81775715D01*
X146675070Y-81605884D01*
X146445180Y-81727205D01*
X146445180Y-82920360D01*
X146465180Y-82920360D01*
X146465180Y-83174360D01*
X146445180Y-83174360D01*
X146445180Y-83194360D01*
X146191180Y-83194360D01*
X146191180Y-83174360D01*
X146171180Y-83174360D01*
X146171180Y-82920360D01*
X146191180Y-82920360D01*
X146191180Y-81727205D01*
X145961290Y-81605884D01*
X145551256Y-81775715D01*
X145122997Y-82166002D01*
X145055882Y-82308913D01*
X144828234Y-81968213D01*
X144346465Y-81646306D01*
X143778180Y-81533267D01*
X143209895Y-81646306D01*
X142728126Y-81968213D01*
X142508180Y-82297386D01*
X142288234Y-81968213D01*
X141806465Y-81646306D01*
X141238180Y-81533267D01*
X140669895Y-81646306D01*
X140188126Y-81968213D01*
X139968180Y-82297386D01*
X139748234Y-81968213D01*
X139266465Y-81646306D01*
X138698180Y-81533267D01*
X138129895Y-81646306D01*
X137648126Y-81968213D01*
X137428180Y-82297386D01*
X137208234Y-81968213D01*
X136726465Y-81646306D01*
X136158180Y-81533267D01*
X135589895Y-81646306D01*
X135108126Y-81968213D01*
X134888180Y-82297386D01*
X134668234Y-81968213D01*
X134186465Y-81646306D01*
X133618180Y-81533267D01*
X133049895Y-81646306D01*
X132568126Y-81968213D01*
X132340478Y-82308913D01*
X132273363Y-82166002D01*
X131845104Y-81775715D01*
X131435070Y-81605884D01*
X131205180Y-81727205D01*
X131205180Y-82920360D01*
X131225180Y-82920360D01*
X131225180Y-83174360D01*
X131205180Y-83174360D01*
X131205180Y-83194360D01*
X130951180Y-83194360D01*
X130951180Y-83174360D01*
X130931180Y-83174360D01*
X130931180Y-82920360D01*
X130951180Y-82920360D01*
X130951180Y-81727205D01*
X130721290Y-81605884D01*
X130311256Y-81775715D01*
X129882997Y-82166002D01*
X129815882Y-82308913D01*
X129588234Y-81968213D01*
X129106465Y-81646306D01*
X128538180Y-81533267D01*
X127969895Y-81646306D01*
X127488126Y-81968213D01*
X127268180Y-82297386D01*
X127048234Y-81968213D01*
X126566465Y-81646306D01*
X125998180Y-81533267D01*
X125429895Y-81646306D01*
X124948126Y-81968213D01*
X124728180Y-82297386D01*
X124508234Y-81968213D01*
X124026465Y-81646306D01*
X123458180Y-81533267D01*
X122889895Y-81646306D01*
X122408126Y-81968213D01*
X122188180Y-82297386D01*
X121968234Y-81968213D01*
X121486465Y-81646306D01*
X120918180Y-81533267D01*
X120349895Y-81646306D01*
X119868126Y-81968213D01*
X119546219Y-82449982D01*
X119433180Y-83018267D01*
X119433180Y-83076453D01*
X119546219Y-83644738D01*
X119868126Y-84126507D01*
X119869359Y-84127331D01*
X119832863Y-84134198D01*
X119616739Y-84273270D01*
X119471749Y-84485470D01*
X119420740Y-84737360D01*
X110311000Y-84737360D01*
X110311000Y-80847000D01*
X162104000Y-80847000D01*
X162104000Y-128703000D01*
M02*
