M48
;DRILL file {KiCad 4.0.6} date 01/08/18 13:51:26
;FORMAT={-:-/ absolute / inch / decimal}
FMAT,2
INCH,TZ
T1C0.016
T2C0.031
T3C0.039
T4C0.050
T5C0.001
%
G90
G05
M72
T1
X4.71Y-3.935
X4.7456Y-3.5946
X5.0306Y-3.5446
X5.0754Y-3.8936
X5.0823Y-3.502
X5.1665Y-3.9464
X5.2406Y-3.7496
X5.2406Y-3.7946
X5.2406Y-3.8613
X5.2456Y-3.6996
X5.3104Y-3.5332
X5.3703Y-4.0794
X5.5056Y-4.8296
X5.5181Y-3.5447
X5.5769Y-3.9306
X5.6096Y-3.7546
X5.6501Y-3.9245
X5.703Y-4.4694
X5.7556Y-3.5946
X5.7656Y-3.6546
X5.7656Y-3.7646
X5.8364Y-3.8105
X5.8456Y-3.9346
X5.8556Y-4.9296
X5.8706Y-3.7546
X5.8749Y-3.8125
X5.8906Y-3.9396
X5.9269Y-3.5607
X6.1353Y-3.5267
X6.1477Y-3.4983
T2
X4.8606Y-4.2071
X4.8606Y-4.2858
X4.8606Y-4.3646
X4.8606Y-4.4433
X4.8606Y-4.5221
X4.9393Y-4.2071
X4.9393Y-4.2858
X4.9393Y-4.3646
X4.9393Y-4.4433
X4.9393Y-4.5221
T3
X4.7606Y-3.2696
X4.7606Y-3.3696
X4.8606Y-3.2696
X4.8606Y-3.3696
X4.8756Y-4.73
X4.8756Y-4.83
X4.9606Y-3.2696
X4.9606Y-3.3696
X4.9756Y-4.73
X4.9756Y-4.83
X5.0606Y-3.2696
X5.0606Y-3.3696
X5.0756Y-4.73
X5.0756Y-4.83
X5.1606Y-3.2696
X5.1606Y-3.3696
X5.1756Y-4.73
X5.1756Y-4.83
X5.2606Y-3.2696
X5.2606Y-3.3696
X5.2756Y-4.73
X5.2756Y-4.83
X5.3606Y-3.2696
X5.3606Y-3.3696
X5.4606Y-3.2696
X5.4606Y-3.3696
X5.5606Y-3.2696
X5.5606Y-3.3696
X5.6606Y-3.2696
X5.6606Y-3.3696
X5.7606Y-3.2696
X5.7606Y-3.3696
X5.8606Y-3.2696
X5.8606Y-3.3696
X5.9606Y-3.2696
X5.9606Y-3.3696
X6.0806Y-4.7296
X6.0806Y-4.8296
T4
X4.41Y-3.62
X4.41Y-4.32
X4.41Y-4.52
X4.41Y-4.62
X4.41Y-4.72
X4.41Y-4.82
X4.41Y-4.92
X4.41Y-5.02
X4.411Y-3.721
X4.411Y-3.821
X4.411Y-3.921
X4.411Y-4.121
X4.411Y-4.221
X4.412Y-4.021
X6.31Y-3.26
X6.31Y-3.36
X6.31Y-3.46
X6.31Y-3.56
X6.31Y-3.86
X6.31Y-3.96
X6.31Y-4.06
X6.31Y-4.16
X6.31Y-4.32
X6.31Y-4.42
X6.31Y-4.52
X6.31Y-4.62
X6.31Y-4.72
X6.31Y-4.82
X6.31Y-4.92
X6.31Y-5.02
X6.311Y-3.66
X6.311Y-3.76
T5
X4.31Y-2.97
T0
M30
